<svg version="1.1" id="Layer_1" xmlns="http://www.w3.org/2000/svg" xmlns:xlink="http://www.w3.org/1999/xlink" x="0px" y="0px"
	 width="100%" viewBox="0 0 204 192" enable-background="new 0 0 204 192" xml:space="preserve">
<path fill="#262C3A" opacity="1.000000" stroke="none" 
	d="
M128.000000,193.000000 
	C85.359970,193.000000 43.219933,193.000000 1.039951,193.000000 
	C1.039951,129.067078 1.039951,65.134125 1.039951,1.100587 
	C68.889854,1.100587 136.779907,1.100587 204.834991,1.100587 
	C204.834991,64.999657 204.834991,128.999786 204.834991,193.000000 
	C179.467743,193.000000 153.983871,193.000000 128.000000,193.000000 
M177.062927,133.778717 
	C177.212479,133.509048 177.188248,133.247726 176.902008,132.061371 
	C176.892868,108.406059 176.883728,84.750740 177.031006,60.807579 
	C177.085846,60.449894 176.936874,60.194447 176.281860,59.492039 
	C175.751587,58.610264 175.221329,57.728489 174.646881,56.191223 
	C172.978943,54.419228 171.610901,52.135777 169.596527,50.954567 
	C150.069687,39.504227 130.431793,28.243326 110.831848,16.917522 
	C105.420860,13.790792 100.065315,13.978559 94.719376,17.068760 
	C75.985916,27.897564 57.305283,38.819767 38.476288,49.479881 
	C33.683289,52.193459 30.320068,55.651844 28.550720,61.703636 
	C28.373116,62.673138 28.041941,63.642406 28.040453,64.612183 
	C28.006653,86.655807 27.989510,108.699532 28.049553,130.743027 
	C28.053417,132.160995 28.705589,133.577209 29.503773,135.448502 
	C30.303967,136.637299 31.104160,137.826080 32.075359,139.683899 
	C33.724480,141.270081 35.140808,143.251389 37.058716,144.381363 
	C56.410263,155.782639 75.784798,167.148300 95.298965,178.267593 
	C99.790733,180.827026 104.815796,181.090515 109.625145,178.320755 
	C113.226494,176.246704 116.908577,174.313339 120.527382,172.268951 
	C133.852997,164.740845 147.274963,157.373917 160.429672,149.557571 
	C165.302414,146.662247 169.537338,142.693512 174.593750,138.786133 
	C175.350998,137.186600 176.108246,135.587051 177.062927,133.778717 
z"/>
<path fill="#608BC2" opacity="1.000000" stroke="none" 
	d="
M28.992231,61.005581 
	C30.320068,55.651844 33.683289,52.193459 38.476288,49.479881 
	C57.305283,38.819767 75.985916,27.897564 94.719376,17.068760 
	C100.065315,13.978559 105.420860,13.790792 110.831848,16.917522 
	C130.431793,28.243326 150.069687,39.504227 169.596527,50.954567 
	C171.610901,52.135777 172.978943,54.419228 174.318878,56.558182 
	C164.350403,62.285225 154.709946,67.645309 144.963806,72.674759 
	C131.335693,49.759434 103.007568,41.985859 79.488762,54.405987 
	C56.889080,66.340729 47.537666,94.767036 58.490559,118.150856 
	C59.183216,119.629639 59.631329,121.222969 59.815147,122.798325 
	C50.259506,128.227386 41.081928,133.621124 31.904350,139.014877 
	C31.104160,137.826080 30.303967,136.637299 29.287178,134.753082 
	C29.044464,109.706970 29.018349,85.356277 28.992231,61.005581 
z"/>
<path fill="#244474" opacity="1.000000" stroke="none" 
	d="
M31.989855,139.349396 
	C41.081928,133.621124 50.259506,128.227386 60.124958,122.946152 
	C67.720253,134.041000 77.903976,141.615067 89.795555,145.159729 
	C97.373650,147.418625 106.162003,147.689392 114.614082,145.143188 
	C127.840172,141.158844 138.242615,133.958878 145.562378,122.074226 
	C152.605942,125.998726 159.360352,129.762817 166.013565,133.697983 
	C168.807068,135.350250 171.386444,137.364594 174.063156,139.214325 
	C169.537338,142.693512 165.302414,146.662247 160.429672,149.557571 
	C147.274963,157.373917 133.852997,164.740845 120.527382,172.268951 
	C116.908577,174.313339 113.226494,176.246704 109.625145,178.320755 
	C104.815796,181.090515 99.790733,180.827026 95.298965,178.267593 
	C75.784798,167.148300 56.410263,155.782639 37.058716,144.381363 
	C35.140808,143.251389 33.724480,141.270081 31.989855,139.349396 
z"/>
<path fill="#2E5693" opacity="1.000000" stroke="none" 
	d="
M174.328461,139.000229 
	C171.386444,137.364594 168.807068,135.350250 166.013565,133.697983 
	C159.360352,129.762817 152.605942,125.998726 145.363297,121.786224 
	C138.994797,117.995605 133.188522,114.525101 127.287758,111.223480 
	C126.123070,110.571815 124.594521,110.570450 123.031097,109.972412 
	C116.131546,105.707985 109.434685,101.740311 102.978836,97.528702 
	C104.762527,96.356972 106.321533,95.455116 107.844910,94.496658 
	C112.927910,91.298592 117.998146,88.080238 123.432655,84.892181 
	C130.884521,80.944931 137.976990,76.975159 145.069473,73.005386 
	C154.709946,67.645309 164.350403,62.285225 174.340973,56.885925 
	C175.221329,57.728489 175.751587,58.610264 176.489319,60.035187 
	C176.756042,60.750698 176.815308,60.923061 176.874603,61.095428 
	C176.883728,84.750740 176.892868,108.406059 176.900894,132.774506 
	C176.888336,133.654251 176.876907,133.820877 176.865509,133.987503 
	C176.108246,135.587051 175.350998,137.186600 174.328461,139.000229 
M140.886810,103.765404 
	C141.935440,104.827515 142.984085,105.889618 144.032715,106.951729 
	C145.407379,105.072197 146.782028,103.192665 148.156677,101.313133 
	C147.880478,101.056725 147.604279,100.800323 147.328079,100.543922 
	C148.904755,100.367981 150.481445,100.192047 152.076645,100.014053 
	C152.076645,98.086372 152.076645,96.489311 152.076645,94.892242 
	C151.743500,95.130569 151.410339,95.368896 151.077194,95.607216 
	C149.176636,93.675789 147.276077,91.744370 144.575729,89.000183 
	C144.428741,89.009392 142.836487,89.109192 141.120789,89.216728 
	C140.941055,90.994392 140.795593,92.433105 140.645737,93.915169 
	C138.717209,94.244217 137.004135,94.536507 135.106262,94.860329 
	C135.204407,96.761589 135.286835,98.358101 135.313446,98.873634 
	C137.650452,100.592697 139.265991,101.781059 140.886810,103.765404 
M167.085739,90.586990 
	C165.439743,89.910248 163.793747,89.233498 161.928314,88.466537 
	C161.444717,91.037949 161.150665,92.601440 160.874847,94.068069 
	C159.129486,94.320908 157.684647,94.530212 156.096558,94.760269 
	C156.096558,96.561378 156.096558,98.186348 156.096558,99.811317 
	C156.500565,99.568039 156.904587,99.324768 157.308594,99.081490 
	C158.713760,101.070091 160.050217,103.112961 161.557175,105.021187 
	C162.179688,105.809456 163.243408,106.895111 163.972107,106.801346 
	C165.047470,106.662979 166.445709,105.805084 166.898621,104.864586 
	C167.481628,103.653969 167.265839,102.058670 167.389526,100.680283 
	C169.286438,100.383263 170.878845,100.133919 172.519897,99.876961 
	C172.519897,98.061165 172.519897,96.484406 172.519897,94.907654 
	C172.196396,95.146790 171.872894,95.385925 171.549393,95.625069 
	C170.067993,94.240929 168.586594,92.856789 167.085739,90.586990 
z"/>
<path fill="#1A1519" opacity="1.000000" stroke="none" 
	d="
M28.771477,61.354607 
	C29.018349,85.356277 29.044464,109.706970 29.063379,134.525940 
	C28.705589,133.577209 28.053417,132.160995 28.049553,130.743027 
	C27.989510,108.699532 28.006653,86.655807 28.040453,64.612183 
	C28.041941,63.642406 28.373116,62.673138 28.771477,61.354607 
z"/>
<path fill="#27262C" opacity="1.000000" stroke="none" 
	d="
M176.952789,60.951504 
	C176.815308,60.923061 176.756042,60.750698 176.640411,60.309784 
	C176.936874,60.194447 177.085846,60.449894 176.952789,60.951504 
z"/>
<path fill="#27262C" opacity="1.000000" stroke="none" 
	d="
M176.964203,133.883118 
	C176.876907,133.820877 176.888336,133.654251 176.945023,133.241196 
	C177.188248,133.247726 177.212479,133.509048 176.964203,133.883118 
z"/>
<path fill="#FDFDFD" opacity="1.000000" stroke="none" 
	d="
M123.233780,110.269180 
	C124.594521,110.570450 126.123070,110.571815 127.287758,111.223480 
	C133.188522,114.525101 138.994797,117.995605 145.033264,121.694916 
	C138.242615,133.958878 127.840172,141.158844 114.614082,145.143188 
	C106.162003,147.689392 97.373650,147.418625 89.795555,145.159729 
	C77.903976,141.615067 67.720253,134.041000 60.503021,122.910835 
	C59.631329,121.222969 59.183216,119.629639 58.490559,118.150856 
	C47.537666,94.767036 56.889080,66.340729 79.488762,54.405987 
	C103.007568,41.985859 131.335693,49.759434 144.963806,72.674744 
	C137.976990,76.975159 130.884521,80.944931 123.415527,84.545868 
	C115.677528,72.957031 100.916069,69.715446 89.826851,76.883720 
	C78.881363,83.959076 75.362679,98.432716 82.038651,109.444649 
	C92.303528,125.563950 113.747520,125.819542 123.233780,110.269180 
z"/>
<path fill="#618CC2" opacity="1.000000" stroke="none" 
	d="
M81.992180,109.110573 
	C75.362679,98.432716 78.881363,83.959076 89.826851,76.883720 
	C100.916069,69.715446 115.677528,72.957031 123.056152,84.523346 
	C117.998146,88.080238 112.927910,91.298592 107.844910,94.496658 
	C106.321533,95.455116 104.762527,96.356972 102.651108,97.630524 
	C95.385643,101.687729 88.688911,105.399155 81.992180,109.110573 
z"/>
<path fill="#254576" opacity="1.000000" stroke="none" 
	d="
M82.038651,109.444649 
	C88.688911,105.399155 95.385643,101.687729 102.410095,97.874474 
	C109.434685,101.740311 116.131546,105.707985 123.031097,109.972412 
	C113.747520,125.819542 92.303528,125.563950 82.038651,109.444649 
z"/>
<path fill="#EEF0F5" opacity="1.000000" stroke="none" 
	d="
M140.884171,103.367416 
	C139.265991,101.781059 137.650452,100.592697 135.313446,98.873634 
	C135.286835,98.358101 135.204407,96.761589 135.106262,94.860329 
	C137.004135,94.536507 138.717209,94.244217 140.645737,93.915169 
	C140.795593,92.433105 140.941055,90.994392 141.120789,89.216728 
	C142.836487,89.109192 144.428741,89.009392 144.575729,89.000183 
	C147.276077,91.744370 149.176636,93.675789 151.077194,95.607216 
	C151.410339,95.368896 151.743500,95.130569 152.076645,94.892242 
	C152.076645,96.489311 152.076645,98.086372 152.076645,100.014053 
	C150.481445,100.192047 148.904755,100.367981 147.328079,100.543922 
	C147.604279,100.800323 147.880478,101.056725 148.156677,101.313133 
	C146.782028,103.192665 145.407379,105.072197 144.032715,106.951729 
	C142.984085,105.889618 141.935440,104.827515 140.884171,103.367416 
z"/>
<path fill="#EFF2F6" opacity="1.000000" stroke="none" 
	d="
M167.095459,91.029816 
	C168.586594,92.856789 170.067993,94.240929 171.549393,95.625069 
	C171.872894,95.385925 172.196396,95.146790 172.519897,94.907654 
	C172.519897,96.484406 172.519897,98.061165 172.519897,99.876961 
	C170.878845,100.133919 169.286438,100.383263 167.389526,100.680283 
	C167.265839,102.058670 167.481628,103.653969 166.898621,104.864586 
	C166.445709,105.805084 165.047470,106.662979 163.972107,106.801346 
	C163.243408,106.895111 162.179688,105.809456 161.557175,105.021187 
	C160.050217,103.112961 158.713760,101.070091 157.308594,99.081490 
	C156.904587,99.324768 156.500565,99.568039 156.096558,99.811317 
	C156.096558,98.186348 156.096558,96.561378 156.096558,94.760269 
	C157.684647,94.530212 159.129486,94.320908 160.874847,94.068069 
	C161.150665,92.601440 161.444717,91.037949 161.928314,88.466537 
	C163.793747,89.233498 165.439743,89.910248 167.095459,91.029816 
z"/>
</svg>