<svg version="1.1" id="Layer_1" xmlns="http://www.w3.org/2000/svg" xmlns:xlink="http://www.w3.org/1999/xlink" x="0px" y="0px"
	 width="100%" viewBox="0 0 204 192" enable-background="new 0 0 204 192" xml:space="preserve">
<path fill="#222323" opacity="1.000000" stroke="none" 
	d="
M1.000000,78.000000 
	C1.000000,52.000008 1.000000,26.500011 1.000000,1.000014 
	C68.999977,1.000009 136.999954,1.000009 204.999954,1.000005 
	C204.999969,64.999962 204.999969,128.999924 204.999985,192.999908 
	C137.000061,192.999939 69.000107,192.999939 1.000081,192.999969 
	C1.000000,154.833328 1.000000,116.666664 1.000000,78.000000 
M44.163277,148.803375 
	C44.119419,151.867065 44.075562,154.930756 43.617020,158.488770 
	C43.748363,159.659515 43.879707,160.830246 44.102116,162.759705 
	C44.887535,164.917572 45.702534,167.065216 46.453220,169.235107 
	C49.618412,178.384140 56.162060,183.473206 65.766075,181.913773 
	C72.928886,180.750702 80.071617,177.905426 86.546936,174.516815 
	C92.692894,171.300537 97.959778,166.404404 103.230629,162.528320 
	C113.453835,170.837051 123.196701,179.263855 136.291687,181.831894 
	C147.939667,184.116150 155.564285,179.491211 159.471420,168.203232 
	C160.120270,166.328613 160.837921,164.338623 160.838348,162.401794 
	C160.840805,151.516144 160.633423,140.630432 160.490509,129.174454 
	C164.121750,127.700500 169.171219,126.003578 173.885376,123.638374 
	C178.617096,121.264374 183.278183,118.576775 187.510696,115.412048 
	C202.024277,104.559975 202.283493,90.178558 187.537445,79.739769 
	C180.315567,74.627373 171.890411,71.109535 163.749619,67.448700 
	C160.150421,65.830170 158.568802,64.630463 159.521500,60.243973 
	C161.758469,49.944378 162.556122,39.465912 159.953110,29.048880 
	C156.555862,15.453569 147.513733,9.862430 134.151169,13.832212 
	C128.511612,15.507630 123.084564,18.379324 118.057709,21.505947 
	C112.624428,24.885365 107.771355,29.197603 102.623711,33.134697 
	C101.492447,32.106907 100.541557,31.175745 99.521919,30.327171 
	C90.827736,23.091551 81.865784,16.300539 70.555908,13.609043 
	C57.843060,10.583672 48.944492,15.275128 46.061069,28.067337 
	C44.377403,35.536873 44.747334,43.551659 44.855110,51.311951 
	C44.920475,56.018772 46.249027,60.708046 47.020950,65.472237 
	C35.830635,69.268616 25.091072,73.113091 16.244007,80.818512 
	C4.707588,90.866257 4.360097,102.176094 15.079261,113.005608 
	C21.285849,119.276085 29.009087,122.778015 36.859100,126.193573 
	C47.276066,130.725998 47.277836,130.721924 44.050659,142.391968 
	C44.044540,144.263107 44.038422,146.134247 44.163277,148.803375 
z"/>
<path fill="#02D3F7" opacity="1.000000" stroke="none" 
	d="
M44.606575,142.029816 
	C47.277836,130.721924 47.276066,130.725998 36.859100,126.193573 
	C29.009087,122.778015 21.285849,119.276085 15.079261,113.005608 
	C4.360097,102.176094 4.707588,90.866257 16.244007,80.818512 
	C25.091072,73.113091 35.830635,69.268616 47.020950,65.472237 
	C46.249027,60.708046 44.920475,56.018772 44.855110,51.311951 
	C44.747334,43.551659 44.377403,35.536873 46.061069,28.067337 
	C48.944492,15.275128 57.843060,10.583672 70.555908,13.609043 
	C81.865784,16.300539 90.827736,23.091551 99.521919,30.327171 
	C100.541557,31.175745 101.492447,32.106907 102.623711,33.134697 
	C107.771355,29.197603 112.624428,24.885365 118.057709,21.505947 
	C123.084564,18.379324 128.511612,15.507630 134.151169,13.832212 
	C147.513733,9.862430 156.555862,15.453569 159.953110,29.048880 
	C162.556122,39.465912 161.758469,49.944378 159.521500,60.243973 
	C158.568802,64.630463 160.150421,65.830170 163.749619,67.448700 
	C171.890411,71.109535 180.315567,74.627373 187.537445,79.739769 
	C202.283493,90.178558 202.024277,104.559975 187.510696,115.412048 
	C183.278183,118.576775 178.617096,121.264374 173.885376,123.638374 
	C169.171219,126.003578 164.121750,127.700500 160.490509,129.174454 
	C160.633423,140.630432 160.840805,151.516144 160.838348,162.401794 
	C160.837921,164.338623 160.120270,166.328613 159.471420,168.203232 
	C155.564285,179.491211 147.939667,184.116150 136.291687,181.831894 
	C123.196701,179.263855 113.453835,170.837051 103.230629,162.528320 
	C97.959778,166.404404 92.692894,171.300537 86.546936,174.516815 
	C80.071617,177.905426 72.928886,180.750702 65.766075,181.913773 
	C56.162060,183.473206 49.618412,178.384140 46.453220,169.235107 
	C45.702534,167.065216 44.887535,164.917572 44.206795,161.998596 
	C44.218220,160.156479 44.124962,159.075470 44.031704,157.994446 
	C44.075562,154.930756 44.119419,151.867065 44.213745,148.042542 
	C44.378338,145.531082 44.492458,143.780457 44.606575,142.029816 
M72.744797,126.262077 
	C72.884422,126.282463 73.024040,126.302849 73.163666,126.323227 
	C73.164749,126.305382 73.165833,126.287537 73.166908,126.269691 
	C72.900909,126.333626 72.634903,126.397552 72.449234,125.612656 
	C72.495392,124.736183 72.894691,123.660507 72.530762,123.015366 
	C70.047668,118.613487 67.404114,114.302124 63.889439,108.415985 
	C61.452248,114.003410 59.463013,118.563858 57.188190,123.779045 
	C62.768314,124.779793 67.588104,125.644180 72.744797,126.262077 
M76.391708,113.058655 
	C78.936935,117.117928 81.297646,121.312866 84.127892,125.162590 
	C85.112976,126.502510 87.240570,127.705048 88.877647,127.746895 
	C98.185822,127.984863 107.506676,127.975632 116.814888,127.731979 
	C118.477386,127.688461 120.796356,126.582169 121.628265,125.235321 
	C126.648613,117.107399 131.490250,108.854874 135.975403,100.422615 
	C136.870956,98.738914 136.613052,95.799896 135.765671,93.954689 
	C133.482590,88.983253 130.698425,84.228691 127.925461,79.498062 
	C120.579163,66.965446 120.539734,66.988800 105.824219,66.905106 
	C104.826065,66.899429 103.827972,66.880966 102.829819,66.876862 
	C84.898590,66.803162 84.869308,66.787079 76.088959,82.500481 
	C73.336189,87.426849 68.731575,92.464272 68.724312,97.456322 
	C68.717049,102.437393 73.409607,107.425308 76.391708,113.058655 
M18.641150,90.314743 
	C14.662382,96.406685 15.007579,101.050636 19.513416,105.509209 
	C26.623056,112.544289 35.161835,117.031265 44.516567,120.291962 
	C48.130722,121.551712 49.940498,120.743088 51.180550,117.110420 
	C53.299599,110.902824 57.538780,104.857307 57.652325,98.684212 
	C57.766602,92.471481 53.938980,86.185715 51.834057,79.933495 
	C51.622059,79.303802 51.289330,78.702049 51.164330,78.057892 
	C50.466564,74.462090 48.708755,73.626083 45.120369,74.854561 
	C35.466106,78.159676 26.442661,82.427696 18.641150,90.314743 
M130.488846,23.844513 
	C123.141312,28.744925 115.793770,33.645336 108.518982,38.497227 
	C114.104271,45.644871 118.853249,51.783787 123.695625,57.848122 
	C124.366783,58.688652 125.435272,59.586758 126.428352,59.735996 
	C134.260529,60.912937 142.119064,61.914371 150.337418,63.019276 
	C150.860260,60.431335 151.442459,58.033722 151.818039,55.604168 
	C153.222427,46.519608 153.950317,37.447567 150.970840,28.490646 
	C149.626984,24.450674 146.754471,21.393959 142.759277,21.218784 
	C138.947006,21.051628 135.054459,22.715557 130.488846,23.844513 
M85.141327,141.287338 
	C82.902306,139.306595 80.923744,136.124451 78.375099,135.571930 
	C70.935234,133.959015 63.267742,133.396042 55.460381,132.392044 
	C52.703148,143.030960 51.444523,153.526352 53.842003,164.134354 
	C55.829273,172.927307 60.581623,175.569748 69.232559,173.303940 
	C80.017288,170.479294 88.362244,163.738190 96.982750,156.182617 
	C93.135544,151.337158 89.370514,146.595200 85.141327,141.287338 
M116.464340,146.941727 
	C114.657860,149.111694 112.619133,151.138748 111.154388,153.519012 
	C110.531677,154.530945 110.512238,156.911926 111.236465,157.601074 
	C118.753601,164.754044 127.023018,170.842834 137.248917,173.576202 
	C143.792068,175.325195 148.272537,173.558472 150.442505,167.985474 
	C155.098892,156.026825 153.475296,144.009979 150.586639,131.807663 
	C145.789322,132.596893 141.555389,133.356445 137.301468,133.979553 
	C129.489975,135.123810 121.601181,136.055222 118.353661,145.039185 
	C118.154144,145.591141 117.425354,145.951752 116.464340,146.941727 
M53.085926,34.111069 
	C52.250740,43.914528 52.780693,53.573109 55.772705,63.196114 
	C59.595966,62.549007 63.002407,61.630322 66.446602,61.455544 
	C75.682961,60.986832 83.866440,59.039562 88.345726,49.640438 
	C89.450638,47.321938 91.795662,45.618977 93.411240,43.510914 
	C94.546265,42.029900 95.411255,40.341938 96.977791,37.805847 
	C88.500374,32.625877 80.873672,27.258717 72.599182,23.218138 
	C68.662491,21.295784 63.122456,18.620476 59.005116,22.748718 
	C56.299568,25.461424 55.120983,29.697065 53.085926,34.111069 
M159.443405,74.754944 
	C157.798935,75.999817 155.429077,76.899979 154.643524,78.553017 
	C152.104324,83.896271 150.098846,89.497932 148.006561,95.044861 
	C147.578568,96.179520 147.190231,97.696426 147.592804,98.718376 
	C150.546432,106.216522 153.706009,113.633553 156.869339,121.241287 
	C159.488190,120.389091 162.246750,119.980072 164.481766,118.674667 
	C171.879547,114.353836 179.463211,110.199677 186.238586,105.017960 
	C190.780960,101.544006 190.318512,93.675323 186.884781,90.249428 
	C179.358078,82.739929 170.075882,78.396698 159.443405,74.754944 
M106.955444,50.490486 
	C105.643799,48.913216 104.332146,47.335949 102.788315,45.479481 
	C98.861954,50.247536 95.295738,54.578243 91.589149,59.079411 
	C99.360497,59.079411 106.257355,59.079411 114.665955,59.079411 
	C111.503181,55.629417 109.422783,53.360100 106.955444,50.490486 
M97.911873,136.420761 
	C96.196404,136.420761 94.480934,136.420761 91.768852,136.420761 
	C95.925438,141.322327 99.384567,145.401413 103.222031,149.926666 
	C107.017807,145.220505 110.348839,141.090546 114.108910,136.428650 
	C108.352768,136.428650 103.580635,136.428650 97.911873,136.420761 
M145.439972,124.082184 
	C146.229385,123.194550 147.862000,122.025826 147.674637,121.463791 
	C146.188538,117.005775 144.356293,112.663162 142.259811,107.345184 
	C139.845352,111.412437 137.815475,114.537437 136.099136,117.826057 
	C134.943970,120.039421 134.231964,122.484085 133.321701,124.825272 
	C135.798279,124.892036 138.277924,125.059387 140.750198,124.984421 
	C142.045898,124.945145 143.328735,124.480888 145.439972,124.082184 
M140.720764,84.530197 
	C146.768005,82.223648 145.369675,76.133018 148.118484,71.924728 
	C143.864899,70.982399 140.514893,70.133049 137.119339,69.547707 
	C135.972229,69.349960 134.709808,69.820999 133.500092,69.986397 
	C133.720749,71.290161 133.633911,72.755730 134.219040,73.867706 
	C136.057144,77.360817 138.147995,80.720932 140.720764,84.530197 
M73.017159,71.223976 
	C72.129616,70.528481 71.139969,69.139870 70.371567,69.253059 
	C66.233322,69.862717 62.150028,70.845337 57.631336,71.785942 
	C59.378239,76.401550 60.913193,80.457161 62.448147,84.512772 
	C63.051556,84.698929 63.654968,84.885086 64.258377,85.071243 
	C67.064156,80.683334 69.869934,76.295418 73.017159,71.223976 
z"/>
<path fill="#231613" opacity="1.000000" stroke="none" 
	d="
M44.328617,142.210892 
	C44.492458,143.780457 44.378338,145.531082 44.148258,147.643555 
	C44.038422,146.134247 44.044540,144.263107 44.328617,142.210892 
z"/>
<path fill="#231613" opacity="1.000000" stroke="none" 
	d="
M43.824364,158.241608 
	C44.124962,159.075470 44.218220,160.156479 44.161263,161.619247 
	C43.879707,160.830246 43.748363,159.659515 43.824364,158.241608 
z"/>
<path fill="#222424" opacity="1.000000" stroke="none" 
	d="
M76.216698,112.734436 
	C73.409607,107.425308 68.717049,102.437393 68.724312,97.456322 
	C68.731575,92.464272 73.336189,87.426849 76.088959,82.500481 
	C84.869308,66.787079 84.898590,66.803162 102.829819,66.876862 
	C103.827972,66.880966 104.826065,66.899429 105.824219,66.905106 
	C120.539734,66.988800 120.579163,66.965446 127.925461,79.498062 
	C130.698425,84.228691 133.482590,88.983253 135.765671,93.954689 
	C136.613052,95.799896 136.870956,98.738914 135.975403,100.422615 
	C131.490250,108.854874 126.648613,117.107399 121.628265,125.235321 
	C120.796356,126.582169 118.477386,127.688461 116.814888,127.731979 
	C107.506676,127.975632 98.185822,127.984863 88.877647,127.746895 
	C87.240570,127.705048 85.112976,126.502510 84.127892,125.162590 
	C81.297646,121.312866 78.936935,117.117928 76.216698,112.734436 
M90.936234,109.605644 
	C97.681664,115.183090 106.074150,115.886299 112.561852,111.417686 
	C118.615959,107.247734 121.476318,99.234093 119.252739,92.554016 
	C116.863274,85.375587 111.907768,81.039917 104.389229,80.335678 
	C97.086143,79.651619 91.354332,82.791016 87.854385,89.257614 
	C84.010765,96.359177 85.214821,103.027557 90.936234,109.605644 
z"/>
<path fill="#222424" opacity="1.000000" stroke="none" 
	d="
M18.880154,90.027771 
	C26.442661,82.427696 35.466106,78.159676 45.120369,74.854561 
	C48.708755,73.626083 50.466564,74.462090 51.164330,78.057892 
	C51.289330,78.702049 51.622059,79.303802 51.834057,79.933495 
	C53.938980,86.185715 57.766602,92.471481 57.652325,98.684212 
	C57.538780,104.857307 53.299599,110.902824 51.180550,117.110420 
	C49.940498,120.743088 48.130722,121.551712 44.516567,120.291962 
	C35.161835,117.031265 26.623056,112.544289 19.513416,105.509209 
	C15.007579,101.050636 14.662382,96.406685 18.880154,90.027771 
z"/>
<path fill="#222424" opacity="1.000000" stroke="none" 
	d="
M130.843018,23.709530 
	C135.054459,22.715557 138.947006,21.051628 142.759277,21.218784 
	C146.754471,21.393959 149.626984,24.450674 150.970840,28.490646 
	C153.950317,37.447567 153.222427,46.519608 151.818039,55.604168 
	C151.442459,58.033722 150.860260,60.431335 150.337418,63.019276 
	C142.119064,61.914371 134.260529,60.912937 126.428352,59.735996 
	C125.435272,59.586758 124.366783,58.688652 123.695625,57.848122 
	C118.853249,51.783787 114.104271,45.644871 108.518982,38.497227 
	C115.793770,33.645336 123.141312,28.744925 130.843018,23.709530 
z"/>
<path fill="#222424" opacity="1.000000" stroke="none" 
	d="
M85.373398,141.570282 
	C89.370514,146.595200 93.135544,151.337158 96.982750,156.182617 
	C88.362244,163.738190 80.017288,170.479294 69.232559,173.303940 
	C60.581623,175.569748 55.829273,172.927307 53.842003,164.134354 
	C51.444523,153.526352 52.703148,143.030960 55.460381,132.392044 
	C63.267742,133.396042 70.935234,133.959015 78.375099,135.571930 
	C80.923744,136.124451 82.902306,139.306595 85.373398,141.570282 
z"/>
<path fill="#222324" opacity="1.000000" stroke="none" 
	d="
M116.703583,146.671555 
	C117.425354,145.951752 118.154144,145.591141 118.353661,145.039185 
	C121.601181,136.055222 129.489975,135.123810 137.301468,133.979553 
	C141.555389,133.356445 145.789322,132.596893 150.586639,131.807663 
	C153.475296,144.009979 155.098892,156.026825 150.442505,167.985474 
	C148.272537,173.558472 143.792068,175.325195 137.248917,173.576202 
	C127.023018,170.842834 118.753601,164.754044 111.236465,157.601074 
	C110.512238,156.911926 110.531677,154.530945 111.154388,153.519012 
	C112.619133,151.138748 114.657860,149.111694 116.703583,146.671555 
z"/>
<path fill="#222424" opacity="1.000000" stroke="none" 
	d="
M53.172260,33.680885 
	C55.120983,29.697065 56.299568,25.461424 59.005116,22.748718 
	C63.122456,18.620476 68.662491,21.295784 72.599182,23.218138 
	C80.873672,27.258717 88.500374,32.625877 96.977791,37.805847 
	C95.411255,40.341938 94.546265,42.029900 93.411240,43.510914 
	C91.795662,45.618977 89.450638,47.321938 88.345726,49.640438 
	C83.866440,59.039562 75.682961,60.986832 66.446602,61.455544 
	C63.002407,61.630322 59.595966,62.549007 55.772705,63.196114 
	C52.780693,53.573109 52.250740,43.914528 53.172260,33.680885 
z"/>
<path fill="#222424" opacity="1.000000" stroke="none" 
	d="
M159.843094,74.859245 
	C170.075882,78.396698 179.358078,82.739929 186.884781,90.249428 
	C190.318512,93.675323 190.780960,101.544006 186.238586,105.017960 
	C179.463211,110.199677 171.879547,114.353836 164.481766,118.674667 
	C162.246750,119.980072 159.488190,120.389091 156.869339,121.241287 
	C153.706009,113.633553 150.546432,106.216522 147.592804,98.718376 
	C147.190231,97.696426 147.578568,96.179520 148.006561,95.044861 
	C150.098846,89.497932 152.104324,83.896271 154.643524,78.553017 
	C155.429077,76.899979 157.798935,75.999817 159.843094,74.859245 
z"/>
<path fill="#213033" opacity="1.000000" stroke="none" 
	d="
M107.148911,50.790634 
	C109.422783,53.360100 111.503181,55.629417 114.665955,59.079411 
	C106.257355,59.079411 99.360497,59.079411 91.589149,59.079411 
	C95.295738,54.578243 98.861954,50.247536 102.788315,45.479481 
	C104.332146,47.335949 105.643799,48.913216 107.148911,50.790634 
z"/>
<path fill="#21292B" opacity="1.000000" stroke="none" 
	d="
M98.360191,136.424713 
	C103.580635,136.428650 108.352768,136.428650 114.108910,136.428650 
	C110.348839,141.090546 107.017807,145.220505 103.222031,149.926666 
	C99.384567,145.401413 95.925438,141.322327 91.768852,136.420761 
	C94.480934,136.420761 96.196404,136.420761 98.360191,136.424713 
z"/>
<path fill="#222526" opacity="1.000000" stroke="none" 
	d="
M145.028671,124.145363 
	C143.328735,124.480888 142.045898,124.945145 140.750198,124.984421 
	C138.277924,125.059387 135.798279,124.892036 133.321716,124.825272 
	C134.231964,122.484085 134.943970,120.039421 136.099136,117.826057 
	C137.815475,114.537437 139.845352,111.412437 142.259811,107.345184 
	C144.356293,112.663162 146.188538,117.005775 147.674637,121.463791 
	C147.862000,122.025826 146.229385,123.194550 145.028671,124.145363 
z"/>
<path fill="#222526" opacity="1.000000" stroke="none" 
	d="
M72.407890,126.508575 
	C67.588104,125.644180 62.768314,124.779793 57.188190,123.779045 
	C59.463013,118.563858 61.452248,114.003410 63.889439,108.415985 
	C67.404114,114.302124 70.047668,118.613487 72.530762,123.015366 
	C72.894691,123.660507 72.495392,124.736183 72.461075,126.010391 
	C72.472923,126.408127 72.407890,126.508575 72.407890,126.508575 
z"/>
<path fill="#222627" opacity="1.000000" stroke="none" 
	d="
M140.430878,84.331367 
	C138.147995,80.720932 136.057144,77.360817 134.219040,73.867706 
	C133.633911,72.755730 133.720749,71.290161 133.500092,69.986397 
	C134.709808,69.820999 135.972229,69.349960 137.119339,69.547707 
	C140.514893,70.133049 143.864899,70.982399 148.118484,71.924728 
	C145.369675,76.133018 146.768005,82.223648 140.430878,84.331367 
z"/>
<path fill="#222525" opacity="1.000000" stroke="none" 
	d="
M72.846436,71.565735 
	C69.869934,76.295418 67.064156,80.683334 64.258377,85.071243 
	C63.654968,84.885086 63.051556,84.698929 62.448147,84.512772 
	C60.913193,80.457161 59.378239,76.401550 57.631336,71.785942 
	C62.150028,70.845337 66.233322,69.862717 70.371567,69.253059 
	C71.139969,69.139870 72.129616,70.528481 72.846436,71.565735 
z"/>
<path fill="#222526" opacity="1.000000" stroke="none" 
	d="
M72.420914,126.434799 
	C72.634903,126.397552 72.900909,126.333626 73.166908,126.269691 
	C73.165833,126.287537 73.164749,126.305382 73.163666,126.323227 
	C73.024040,126.302849 72.884422,126.282463 72.576340,126.385330 
	C72.407890,126.508575 72.472923,126.408127 72.420914,126.434799 
z"/>
<path fill="#01D6FB" opacity="1.000000" stroke="none" 
	d="
M90.681610,109.335587 
	C85.214821,103.027557 84.010765,96.359177 87.854385,89.257614 
	C91.354332,82.791016 97.086143,79.651619 104.389229,80.335678 
	C111.907768,81.039917 116.863274,85.375587 119.252739,92.554016 
	C121.476318,99.234093 118.615959,107.247734 112.561852,111.417686 
	C106.074150,115.886299 97.681664,115.183090 90.681610,109.335587 
z"/>
</svg>