<svg version="1.1" id="Layer_1" xmlns="http://www.w3.org/2000/svg" xmlns:xlink="http://www.w3.org/1999/xlink" x="0px" y="0px"
	 width="100%" viewBox="0 0 204 192" enable-background="new 0 0 204 192" xml:space="preserve">
<path fill="#FEFEFE" opacity="1.000000" stroke="none" 
	d="
M124.000000,193.000000 
	C82.692459,193.000000 41.884918,193.000000 1.038687,193.000000 
	C1.038687,129.066238 1.038687,65.132439 1.038687,1.099324 
	C68.890701,1.099324 136.781601,1.099324 204.836243,1.099324 
	C204.836243,64.999664 204.836243,128.999786 204.836243,193.000000 
	C178.132736,193.000000 151.316360,193.000000 124.000000,193.000000 
M15.348928,128.114502 
	C15.348928,128.114502 15.692770,128.168579 15.766463,128.789322 
	C15.862296,129.193771 15.958130,129.598206 16.067335,130.642731 
	C16.642096,131.496368 17.216854,132.349991 17.764004,133.241928 
	C17.764004,133.241928 17.740751,133.283203 17.843166,133.985870 
	C20.980997,139.474411 22.998154,145.940277 30.137802,148.692352 
	C32.039951,150.635651 33.942104,152.578934 36.083458,154.919250 
	C36.327969,155.143097 36.614933,155.236328 37.106434,155.384216 
	C37.106434,155.384216 37.351955,155.366409 37.747246,155.939697 
	C42.187523,157.646423 46.627804,159.353149 51.523945,161.240631 
	C51.523945,161.240631 52.007885,161.321213 52.007885,161.321213 
	C52.007885,161.321213 52.493599,161.252136 53.046528,161.822067 
	C56.659534,162.181702 60.271412,162.839508 63.885723,162.853180 
	C89.630493,162.950562 115.375763,162.922562 141.120850,162.906113 
	C142.430176,162.905273 143.739334,162.643433 145.914688,162.681976 
	C150.616928,162.372574 155.319183,162.063187 160.641052,161.855774 
	C161.407700,161.568756 162.174332,161.281723 163.520676,160.939682 
	C163.692505,160.849380 163.864319,160.759079 164.692093,160.748077 
	C165.639969,160.242889 166.587860,159.737717 168.249847,159.251862 
	C172.599518,156.254517 177.327759,153.669250 181.179947,150.130386 
	C184.302444,147.261887 186.874283,143.496078 188.769226,139.671829 
	C190.718964,135.737015 191.553024,131.249374 193.273727,126.257935 
	C193.153702,121.512482 193.033691,116.767029 192.945236,111.286705 
	C191.516342,108.720764 190.087448,106.154816 188.397308,103.034981 
	C187.963699,102.620522 187.530106,102.206070 186.967453,101.281425 
	C186.840378,101.160477 186.713318,101.039536 187.104095,100.626381 
	C184.922028,97.660545 182.739960,94.694710 180.177658,91.147202 
	C176.797943,89.085304 173.418213,87.023407 169.567657,84.424942 
	C167.722397,83.727646 165.924850,82.653969 164.021774,82.412689 
	C160.248779,81.934341 158.735672,80.231926 158.654877,76.324539 
	C158.610733,74.189964 156.985840,72.088074 156.152878,69.228798 
	C156.121841,68.484428 156.090805,67.740067 156.146286,66.283585 
	C155.464340,64.853790 154.782410,63.423996 154.122192,61.251915 
	C152.167633,58.786972 150.213089,56.322029 148.198837,53.133144 
	C148.053421,52.425991 147.908005,51.718842 147.603043,50.383904 
	C144.845169,47.835678 142.087280,45.287453 139.014618,42.246731 
	C138.386139,41.810028 137.757660,41.373329 136.769562,40.436451 
	C136.201035,40.248093 135.632492,40.059738 135.124542,39.874393 
	C135.124542,39.874393 135.145081,39.817184 134.792221,39.224510 
	C130.223938,37.308819 125.655655,35.393127 120.514381,33.056526 
	C114.103409,32.414234 107.610260,30.820461 101.301826,31.365347 
	C93.017738,32.080875 84.464706,33.335197 77.391396,39.893204 
	C77.234535,40.247681 77.077675,40.602158 76.946999,40.845963 
	C76.946999,40.845963 76.838776,40.811020 76.126099,40.766174 
	C72.029640,44.468880 67.933189,48.171589 63.269344,52.239655 
	C61.132404,56.127270 58.995461,60.014881 56.410141,64.358475 
	C54.913471,65.393600 53.416801,66.428726 51.206657,67.562920 
	C50.672581,68.000153 50.138504,68.437378 48.851387,68.835037 
	C46.903900,69.257309 44.956413,69.679581 42.275116,70.071220 
	C33.867252,73.276711 27.570782,79.167694 21.531855,86.297813 
	C21.328054,86.810715 21.124254,87.323608 20.742699,88.396675 
	C20.280418,89.025650 19.818140,89.654633 18.783278,89.932686 
	C18.212652,89.801575 17.153658,89.520370 17.141226,89.560822 
	C16.397900,91.979332 15.560252,94.392159 15.117971,96.874382 
	C14.464641,100.541077 14.098244,104.258904 13.670976,108.518753 
	C13.433167,109.006660 13.195359,109.494576 12.265236,110.130669 
	C12.562714,116.071671 12.855533,122.012978 13.234568,127.948769 
	C13.237824,127.999786 14.402296,127.976654 15.348928,128.114502 
z"/>
<path fill="#2D75BB" opacity="1.000000" stroke="none" 
	d="
M160.021423,161.753784 
	C155.319183,162.063187 150.616928,162.372574 145.315552,162.256012 
	C143.959869,161.572388 143.203156,161.088943 142.446854,161.089615 
	C112.462410,161.116394 82.478004,161.187119 52.493599,161.252136 
	C52.493599,161.252136 52.007885,161.321213 52.007885,161.321213 
	C52.007885,161.321213 51.523945,161.240631 50.989693,160.973389 
	C47.315990,159.061447 44.176537,157.416763 41.113098,155.429123 
	C46.832432,152.669937 52.362640,149.917908 58.161850,147.964462 
	C61.592987,146.808701 65.455605,146.959686 69.112343,146.439697 
	C72.027939,146.025101 74.934769,145.533127 77.829147,144.988663 
	C82.639885,144.083725 87.438354,143.113373 92.240288,142.161972 
	C94.295120,141.754852 96.409248,140.777298 98.386734,141.006302 
	C105.403648,141.818832 106.841545,140.382233 105.489410,133.656067 
	C107.810020,135.682022 109.822632,137.544769 111.944168,139.730835 
	C114.023796,141.223587 115.884041,143.013260 117.996033,143.389374 
	C120.139671,143.771118 122.531784,142.757614 124.815079,142.355164 
	C123.522079,140.615814 122.229088,138.876450 121.023430,136.752975 
	C123.247055,134.393845 127.447281,135.276459 128.220108,131.297501 
	C128.232910,131.231583 129.662247,131.430481 130.428406,131.523605 
	C131.642487,131.671188 132.854752,131.833847 134.192505,132.185272 
	C134.509720,132.626175 134.738007,132.832291 135.009186,133.376251 
	C135.757034,136.610077 137.151718,137.156448 140.099503,136.128632 
	C142.766983,135.198532 146.278595,134.417130 148.638351,135.414612 
	C152.093231,136.875000 153.031799,135.603790 154.334656,132.919876 
	C155.355392,132.865738 156.039917,132.877075 157.106049,132.917725 
	C158.215210,132.474380 158.942780,132.001709 159.583420,131.575775 
	C159.496490,131.622498 159.445251,131.431885 159.669098,131.555557 
	C160.030563,131.587952 160.168167,131.496674 160.305786,131.405396 
	C160.003372,131.322678 159.700958,131.239960 159.254700,130.946243 
	C159.114029,130.565033 159.117203,130.394821 159.554291,130.158737 
	C163.623596,129.715591 167.275589,129.454041 170.890976,128.936691 
	C178.187454,127.892586 185.907379,131.688095 192.875275,127.003639 
	C191.553024,131.249374 190.718964,135.737015 188.769226,139.671829 
	C186.874283,143.496078 184.302444,147.261887 181.179947,150.130386 
	C177.327759,153.669250 172.599518,156.254517 167.561066,159.234558 
	C165.926910,159.701096 164.981537,160.184937 164.036148,160.668777 
	C163.864319,160.759079 163.692505,160.849380 162.913177,160.939606 
	C161.544266,161.210953 160.782852,161.482361 160.021423,161.753784 
M132.588577,136.516769 
	C132.588577,136.516769 132.477997,136.582855 132.588577,136.516769 
z"/>
<path fill="#347ABE" opacity="1.000000" stroke="none" 
	d="
M105.181419,133.492874 
	C106.841545,140.382233 105.403648,141.818832 98.386734,141.006302 
	C96.409248,140.777298 94.295120,141.754852 92.240288,142.161972 
	C87.438354,143.113373 82.639885,144.083725 77.829147,144.988663 
	C74.934769,145.533127 72.027939,146.025101 69.112343,146.439697 
	C65.455605,146.959686 61.592987,146.808701 58.161850,147.964462 
	C52.362640,149.917908 46.832432,152.669937 40.744484,155.353073 
	C39.317219,155.535461 38.334587,155.450943 37.351955,155.366409 
	C37.351955,155.366409 37.106434,155.384216 37.027363,155.020813 
	C36.736065,154.399353 36.523842,154.141296 36.311615,153.883255 
	C36.155827,154.096252 36.000042,154.309235 35.844254,154.522232 
	C33.942104,152.578934 32.039951,150.635651 30.456274,148.303299 
	C34.807232,145.329803 39.506710,144.177124 43.734722,141.796082 
	C47.555668,139.644287 52.557087,137.047211 58.136536,138.750259 
	C59.973591,139.311005 62.687992,136.997421 65.416122,135.999084 
	C67.514183,135.269638 69.197334,134.539276 70.906204,133.850616 
	C70.931923,133.892319 70.836304,133.913818 71.093674,133.839325 
	C71.568855,133.491089 71.786659,133.217331 72.370056,132.878754 
	C75.388199,131.494354 78.040749,130.174789 81.107971,128.891113 
	C84.311890,127.625694 87.101128,126.324394 90.085541,125.303726 
	C93.302132,129.606552 97.489334,131.390808 102.341644,132.057007 
	C103.335213,132.193420 104.237213,132.996887 105.181419,133.492874 
M73.726158,135.614197 
	C74.225479,135.388687 74.733391,135.178253 75.207214,134.908051 
	C75.243736,134.887222 75.040283,134.445587 74.948372,134.199539 
	C74.421257,134.529938 73.894150,134.860321 73.726158,135.614197 
z"/>
<path fill="#5691CC" opacity="1.000000" stroke="none" 
	d="
M156.073822,69.971443 
	C156.985840,72.088074 158.610733,74.189964 158.654877,76.324539 
	C158.735672,80.231926 160.248779,81.934341 164.021774,82.412689 
	C165.924850,82.653969 167.722397,83.727646 169.413666,84.717415 
	C166.506271,85.003708 163.752869,84.997536 160.796738,84.710403 
	C157.004120,82.953758 153.472534,80.431259 149.811859,80.227486 
	C142.893982,79.842400 135.845810,80.371590 128.955429,81.294556 
	C121.069702,82.350845 120.105736,83.936478 119.644066,91.977097 
	C118.836006,92.014809 118.374107,92.037415 117.954643,92.059250 
	C117.997070,92.058472 117.934113,92.115379 117.910034,91.766617 
	C116.880028,91.366707 115.874084,91.315559 114.578682,91.201294 
	C113.841255,90.798111 113.393295,90.458046 113.086411,89.780945 
	C113.278625,88.678261 113.682060,87.605019 113.324860,87.195908 
	C110.611328,84.088066 102.389626,86.090797 100.780548,90.349266 
	C94.805779,92.263199 90.494392,95.758804 86.991272,100.957664 
	C84.422623,101.767998 82.213295,102.386444 79.638474,103.001625 
	C78.298042,102.758308 77.323105,102.518242 76.336220,102.275238 
	C77.422737,100.959869 78.206421,100.011108 79.338867,99.019768 
	C80.212135,96.180084 80.736633,93.382980 81.291496,90.424011 
	C76.422630,89.888382 72.708725,89.479805 69.051453,88.708717 
	C72.381653,85.699715 75.295822,83.755920 80.064743,86.377327 
	C82.145721,87.521210 86.103783,85.433998 89.148972,84.594849 
	C93.213577,83.474770 97.390129,80.725525 101.215675,81.187042 
	C109.807938,82.223618 116.780365,78.263687 124.258011,75.738525 
	C125.056030,75.469048 125.429939,73.943672 126.375443,73.000732 
	C127.499992,73.000572 128.249695,73.000587 129.087997,73.391830 
	C132.910049,75.260277 136.640442,76.695236 140.458069,73.000450 
	C144.277420,73.000305 147.638718,73.000305 151.145599,73.225815 
	C151.860794,73.300987 152.430405,73.150650 153.245117,72.832932 
	C153.659943,72.110397 153.829666,71.555229 154.175720,70.750214 
	C154.925964,70.324059 155.499893,70.147751 156.073822,69.971443 
z"/>
<path fill="#6498D2" opacity="1.000000" stroke="none" 
	d="
M148.258530,53.857086 
	C150.213089,56.322029 152.167633,58.786972 153.722610,61.624603 
	C151.830948,61.447548 150.360489,60.824562 148.838654,60.375679 
	C147.934219,60.108902 146.948929,60.116219 145.603973,60.000801 
	C144.234940,60.156116 143.006378,59.986752 142.331055,60.519157 
	C138.383148,63.631531 134.110855,63.335686 129.544067,62.423721 
	C127.938736,62.103142 126.060974,62.864990 124.363869,63.335503 
	C117.725433,65.175964 111.125694,67.157036 104.479095,68.966576 
	C100.525925,70.042824 96.193611,72.344910 92.591255,71.552467 
	C84.813332,69.841484 77.903305,72.973923 70.652580,73.802460 
	C60.469643,74.966064 50.414349,77.253464 40.311630,79.099442 
	C39.511440,79.245651 38.767063,79.697296 37.631680,79.966354 
	C35.842468,79.613235 34.418331,79.300774 33.046310,78.644409 
	C34.061264,77.861320 35.024094,77.422142 36.385880,76.988068 
	C40.571922,77.344940 41.239330,75.058632 41.333534,72.003517 
	C42.108353,71.998131 42.551079,71.996017 43.382736,72.002235 
	C46.363693,71.682480 49.339081,70.385262 51.468163,71.227478 
	C55.941124,72.996857 59.945263,70.748230 64.048775,70.519592 
	C70.062515,70.184525 75.883972,67.270226 81.922310,66.268265 
	C88.412651,65.191307 94.493668,62.327000 101.406975,62.810749 
	C106.025917,63.133953 110.957664,62.247215 115.414558,60.840771 
	C121.664429,58.868530 127.638008,56.878639 134.443375,57.061932 
	C139.016342,57.185093 143.651306,55.006092 148.258530,53.857086 
z"/>
<path fill="#4886C5" opacity="1.000000" stroke="none" 
	d="
M12.957550,109.982483 
	C13.195359,109.494576 13.433167,109.006660 13.776728,107.939499 
	C13.993862,106.938599 14.105244,106.516945 14.439580,106.312462 
	C14.784286,107.349487 14.906037,108.169334 15.018536,109.405182 
	C15.607409,113.037315 16.205536,116.253441 16.977362,120.403557 
	C21.384489,118.536850 25.432177,116.094353 29.805027,115.136848 
	C36.770187,113.611725 43.928795,112.742844 51.050861,112.247963 
	C55.225662,111.957870 56.272026,110.490578 55.424500,106.876968 
	C58.176033,109.994957 60.587894,113.027283 63.005779,116.432091 
	C63.196320,118.027443 63.380840,119.250313 63.590027,120.636665 
	C61.147682,120.873581 59.006683,121.081253 56.594017,121.563095 
	C56.246315,124.886505 56.170288,127.935760 55.780785,131.022644 
	C54.738686,131.402100 54.010059,131.743912 53.004272,132.215744 
	C53.004272,130.865875 53.004272,129.930588 53.004753,128.748596 
	C53.005238,128.501892 53.004463,128.008469 53.171158,127.918686 
	C53.226349,127.555420 53.114849,127.281944 52.753700,127.005676 
	C52.504044,127.002876 52.004726,126.998032 51.982807,126.699951 
	C51.640015,125.934021 51.319141,125.466179 50.721767,124.796379 
	C48.556190,122.041397 45.906403,119.692894 43.271809,122.515671 
	C40.090679,125.924034 36.554420,125.986931 32.542473,126.058403 
	C27.358671,126.150764 22.182392,126.665291 16.849941,126.761055 
	C16.174574,126.353935 15.652138,126.183784 15.021452,125.620491 
	C14.261317,120.145729 13.609434,115.064102 12.957550,109.982483 
z"/>
<path fill="#679BD3" opacity="1.000000" stroke="none" 
	d="
M148.228683,53.495117 
	C143.651306,55.006092 139.016342,57.185093 134.443375,57.061932 
	C127.638008,56.878639 121.664429,58.868530 115.414558,60.840771 
	C110.957664,62.247215 106.025917,63.133953 101.406975,62.810749 
	C94.493668,62.327000 88.412651,65.191307 81.922310,66.268265 
	C75.883972,67.270226 70.062515,70.184525 64.048775,70.519592 
	C59.945263,70.748230 55.941124,72.996857 51.468163,71.227478 
	C49.339081,70.385262 46.363693,71.682480 43.386024,71.686707 
	C43.003231,70.942513 43.006081,70.522186 43.008926,70.101852 
	C44.956413,69.679581 46.903900,69.257309 49.614685,68.862381 
	C50.892029,68.414436 51.406078,67.939140 51.920128,67.463852 
	C53.416801,66.428726 54.913471,65.393600 56.909222,64.239868 
	C59.272453,63.747604 61.136608,63.373955 63.440697,63.000183 
	C68.308372,62.666714 72.811714,62.731815 77.146645,61.909313 
	C84.156235,60.579327 91.055107,58.665810 98.333801,56.998825 
	C99.110931,56.998886 99.555008,56.998833 100.463226,56.999344 
	C105.045044,56.793919 109.206146,56.896126 113.272141,56.323299 
	C124.789787,54.700653 136.268509,52.801773 147.762573,51.011692 
	C147.908005,51.718842 148.053421,52.425991 148.228683,53.495117 
z"/>
<path fill="#397EC1" opacity="1.000000" stroke="none" 
	d="
M188.658554,103.588875 
	C190.087448,106.154816 191.516342,108.720764 192.620575,111.827385 
	C190.945755,114.994667 189.595612,117.621262 188.245453,120.247864 
	C187.956100,119.770813 187.666748,119.293755 187.377396,118.816704 
	C185.504593,118.816704 183.587906,118.561516 181.768921,118.874390 
	C178.775223,119.389313 175.873505,120.435074 172.881027,120.961861 
	C168.278549,121.772072 163.632080,122.332428 158.536530,122.997841 
	C154.613281,123.000954 151.152725,122.891602 147.703873,123.045006 
	C144.954880,123.167274 143.843246,122.143456 143.951157,119.341446 
	C144.109344,115.233673 143.998596,111.115547 144.289825,107.279579 
	C144.971222,110.632713 145.365234,113.708099 145.584091,115.416237 
	C150.991867,114.718719 155.375702,114.437164 159.626205,113.530571 
	C164.542542,112.481956 169.421600,111.112625 174.167984,109.456001 
	C178.550446,107.926392 182.735977,105.832520 187.428589,103.919769 
	C188.118805,103.764542 188.388672,103.676712 188.658554,103.588875 
z"/>
<path fill="#3A7FC0" opacity="1.000000" stroke="none" 
	d="
M53.004272,128.995331 
	C53.004272,129.930588 53.004272,130.865875 53.004272,132.215744 
	C54.010059,131.743912 54.738686,131.402100 55.996109,131.258255 
	C57.683010,132.005249 58.841110,132.554260 60.049957,133.461578 
	C61.734211,134.545959 63.367718,135.272064 65.001221,135.998169 
	C62.687992,136.997421 59.973591,139.311005 58.136536,138.750259 
	C52.557087,137.047211 47.555668,139.644287 43.734722,141.796082 
	C39.506710,144.177124 34.807232,145.329803 30.420382,147.957855 
	C22.998154,145.940277 20.980997,139.474411 18.164574,133.580307 
	C20.046543,134.437775 21.607105,135.700806 23.594736,137.309479 
	C27.340881,136.054321 32.050884,134.424149 36.796200,132.904251 
	C40.052967,131.861130 43.335583,130.878708 46.651176,130.046600 
	C48.726128,129.525833 50.883747,129.334488 53.004272,128.995331 
z"/>
<path fill="#4584C6" opacity="1.000000" stroke="none" 
	d="
M180.557892,91.728882 
	C182.739960,94.694710 184.922028,97.660545 186.476456,100.805809 
	C180.487717,102.183868 175.046265,104.635643 169.783691,104.298119 
	C161.099976,103.741196 152.676392,110.255287 143.998169,104.546829 
	C143.999588,101.065666 144.002853,98.038597 144.294891,95.218544 
	C146.591751,96.881844 148.599854,98.338127 149.691422,99.129738 
	C155.644638,97.303230 161.457077,93.506866 166.149048,94.585304 
	C172.135925,95.961372 176.242538,95.253853 180.557892,91.728882 
z"/>
<path fill="#6FA2D6" opacity="1.000000" stroke="none" 
	d="
M63.000763,63.000305 
	C61.136608,63.373955 59.272453,63.747604 57.133411,64.011879 
	C58.995461,60.014881 61.132404,56.127270 63.836601,52.267536 
	C65.728004,55.961918 67.686943,54.432793 69.798264,53.066353 
	C70.711403,52.475368 71.922241,52.344387 73.005768,52.372330 
	C73.882561,53.248199 74.843063,54.307384 75.606415,54.180500 
	C85.162918,52.592014 94.642471,50.459061 104.238777,49.212852 
	C115.444069,47.757698 126.744896,47.038216 138.251968,45.999672 
	C138.499664,45.999802 138.995041,46.002094 138.996613,46.251583 
	C138.998184,46.501072 138.998398,47.000061 138.657806,47.175571 
	C137.478027,47.862007 136.684158,48.712048 135.792633,48.831135 
	C127.352730,49.958477 118.829300,50.603500 110.475342,52.165329 
	C106.810150,52.850555 103.480888,55.332607 99.999084,56.998779 
	C99.555008,56.998833 99.110931,56.998886 98.256271,56.622158 
	C96.863472,55.846325 95.825821,55.003666 94.907829,55.118404 
	C87.578003,56.034550 80.089592,56.484562 73.036560,58.459045 
	C69.728111,59.385242 64.457642,57.551006 63.000763,63.000305 
M63.410385,56.481918 
	C63.410385,56.481918 63.523331,56.414234 63.410385,56.481918 
z"/>
<path fill="#7CABDA" opacity="1.000000" stroke="none" 
	d="
M121.087372,33.477436 
	C125.655655,35.393127 130.223938,37.308819 134.565384,39.580879 
	C130.637054,40.893723 126.156181,39.115494 123.285507,43.194771 
	C122.962402,43.653915 121.484596,43.336185 120.543503,43.317101 
	C118.740173,43.280537 116.878067,42.873722 115.144806,43.191067 
	C105.188950,45.013893 95.273552,47.057255 85.320251,48.894825 
	C83.200142,49.286232 80.767761,49.448112 81.056747,45.652382 
	C85.582932,42.405479 89.625748,39.102276 95.868179,40.767662 
	C99.091240,41.627525 102.979965,40.325966 106.499115,39.645283 
	C109.800591,39.006706 112.965485,37.585144 116.277161,37.101242 
	C118.778221,36.735786 120.983261,36.712593 121.087372,33.477436 
z"/>
<path fill="#85B2DE" opacity="1.000000" stroke="none" 
	d="
M120.800873,33.266983 
	C120.983261,36.712593 118.778221,36.735786 116.277161,37.101242 
	C112.965485,37.585144 109.800591,39.006706 106.499115,39.645283 
	C102.979965,40.325966 99.091240,41.627525 95.868179,40.767662 
	C89.625748,39.102276 85.582932,42.405479 80.656860,45.653122 
	C79.133598,46.002819 78.067215,46.003395 76.871063,45.694374 
	C76.773796,43.860195 76.806282,42.335606 76.838776,40.811020 
	C76.838776,40.811020 76.946999,40.845963 77.196396,40.755646 
	C77.602516,40.303535 77.759239,39.941746 77.915955,39.579956 
	C84.464706,33.335197 93.017738,32.080875 101.301826,31.365347 
	C107.610260,30.820461 114.103409,32.414234 120.800873,33.266983 
z"/>
<path fill="#4B89C6" opacity="1.000000" stroke="none" 
	d="
M180.367767,91.438042 
	C176.242538,95.253853 172.135925,95.961372 166.149048,94.585304 
	C161.457077,93.506866 155.644638,97.303230 149.691422,99.129738 
	C148.599854,98.338127 146.591751,96.881844 144.320389,94.872665 
	C144.366043,93.220413 144.674973,92.121063 144.877594,90.715942 
	C145.989532,89.275993 147.330246,87.071213 148.404633,87.194138 
	C152.907623,87.709335 157.081055,87.364334 160.999481,84.991364 
	C163.752869,84.997536 166.506271,85.003708 169.649078,84.985703 
	C173.418213,87.023407 176.797943,89.085304 180.367767,91.438042 
z"/>
<path fill="#3379BE" opacity="1.000000" stroke="none" 
	d="
M159.004272,122.998779 
	C163.632080,122.332428 168.278549,121.772072 172.881027,120.961861 
	C175.873505,120.435074 178.775223,119.389313 181.768921,118.874390 
	C183.587906,118.561516 185.504593,118.816704 187.377396,118.816704 
	C187.666748,119.293755 187.956100,119.770813 188.245453,120.247864 
	C189.595612,117.621262 190.945755,114.994667 192.604797,112.194824 
	C193.033691,116.767029 193.153702,121.512482 193.074493,126.630783 
	C185.907379,131.688095 178.187454,127.892586 170.890976,128.936691 
	C167.275589,129.454041 163.623596,129.715591 159.475677,129.805756 
	C158.899216,127.816734 158.835266,126.114822 158.847290,124.061752 
	C158.950272,123.473320 158.977280,123.236046 159.004272,122.998779 
z"/>
<path fill="#74A5D9" opacity="1.000000" stroke="none" 
	d="
M77.000832,46.003967 
	C78.067215,46.003395 79.133598,46.002819 80.599869,46.001503 
	C80.767761,49.448112 83.200142,49.286232 85.320251,48.894825 
	C95.273552,47.057255 105.188950,45.013893 115.144806,43.191067 
	C116.878067,42.873722 118.740173,43.280537 120.543503,43.317101 
	C121.484596,43.336185 122.962402,43.653915 123.285507,43.194771 
	C126.156181,39.115494 130.637054,40.893723 134.741821,39.877216 
	C135.145081,39.817184 135.124542,39.874393 135.239990,40.155643 
	C135.946671,40.603474 136.537933,40.770054 137.129181,40.936630 
	C137.757660,41.373329 138.386139,41.810028 138.865723,42.716373 
	C138.479309,44.123856 138.241791,45.061699 138.004272,45.999542 
	C126.744896,47.038216 115.444069,47.757698 104.238777,49.212852 
	C94.642471,50.459061 85.162918,52.592014 75.606415,54.180500 
	C74.843063,54.307384 73.882561,53.248199 73.314606,52.237331 
	C77.275787,51.319969 76.567101,48.324524 77.000832,46.003967 
z"/>
<path fill="#3E82C3" opacity="1.000000" stroke="none" 
	d="
M144.000000,105.000916 
	C152.676392,110.255287 161.099976,103.741196 169.783691,104.298119 
	C175.046265,104.635643 180.487717,102.183868 186.217545,100.951912 
	C186.713318,101.039536 186.840378,101.160477 187.003616,101.902069 
	C187.029266,103.010864 187.018753,103.499023 187.008240,103.987183 
	C182.735977,105.832520 178.550446,107.926392 174.167984,109.456001 
	C169.421600,111.112625 164.542542,112.481956 159.626205,113.530571 
	C155.375702,114.437164 150.991867,114.718719 145.584091,115.416237 
	C145.365234,113.708099 144.971222,110.632713 144.286362,106.946068 
	C143.997009,105.890175 143.998505,105.445549 144.000000,105.000916 
z"/>
<path fill="#3F81C3" opacity="1.000000" stroke="none" 
	d="
M53.004753,128.748611 
	C50.883747,129.334488 48.726128,129.525833 46.651176,130.046600 
	C43.335583,130.878708 40.052967,131.861130 36.796200,132.904251 
	C32.050884,134.424149 27.340881,136.054321 23.594736,137.309479 
	C21.607105,135.700806 20.046543,134.437775 18.113365,133.228973 
	C17.740751,133.283203 17.764004,133.241928 17.841583,132.856354 
	C17.297430,131.648071 16.675699,130.825363 16.053965,130.002655 
	C15.958130,129.598206 15.862296,129.193771 16.000076,128.346344 
	C16.490086,127.601578 16.746481,127.299805 17.002876,126.998024 
	C22.182392,126.665291 27.358671,126.150764 32.542473,126.058403 
	C36.554420,125.986931 40.090679,125.924034 43.271809,122.515671 
	C45.906403,119.692894 48.556190,122.041397 50.742920,125.094727 
	C51.361961,126.062706 51.683346,126.530365 52.004726,126.998032 
	C52.004726,126.998032 52.504044,127.002876 52.753265,127.255615 
	C53.003151,127.675056 53.003807,127.841759 53.004463,128.008469 
	C53.004463,128.008469 53.005238,128.501892 53.004753,128.748611 
z"/>
<path fill="#6C9ED4" opacity="1.000000" stroke="none" 
	d="
M138.251968,45.999672 
	C138.241791,45.061699 138.479309,44.123856 139.023117,42.962624 
	C142.087280,45.287453 144.845169,47.835678 147.682800,50.697800 
	C136.268509,52.801773 124.789787,54.700653 113.272141,56.323299 
	C109.206146,56.896126 105.045044,56.793919 100.463226,56.999348 
	C103.480888,55.332607 106.810150,52.850555 110.475342,52.165329 
	C118.829300,50.603500 127.352730,49.958477 135.792633,48.831135 
	C136.684158,48.712048 137.478027,47.862007 138.820602,47.395164 
	C139.728149,47.385067 140.132278,47.330894 140.536423,47.276726 
	C140.022629,46.851849 139.508835,46.426971 138.995041,46.002098 
	C138.995041,46.002094 138.499664,45.999802 138.251968,45.999672 
z"/>
<path fill="#4589C9" opacity="1.000000" stroke="none" 
	d="
M52.770065,161.537109 
	C82.478004,161.187119 112.462410,161.116394 142.446854,161.089615 
	C143.203156,161.088943 143.959869,161.572388 144.882477,162.166580 
	C143.739334,162.643433 142.430176,162.905273 141.120850,162.906113 
	C115.375763,162.922562 89.630493,162.950562 63.885723,162.853180 
	C60.271412,162.839508 56.659534,162.181702 52.770065,161.537109 
z"/>
<path fill="#5E95D0" opacity="1.000000" stroke="none" 
	d="
M146.000000,60.000305 
	C146.948929,60.116219 147.934219,60.108902 148.838654,60.375679 
	C150.360489,60.824562 151.830948,61.447548 153.711761,61.995750 
	C154.782410,63.423996 155.464340,64.853790 155.758514,66.642944 
	C154.580276,67.335075 153.789841,67.667847 152.626007,67.995392 
	C148.767258,67.999130 144.987946,68.882355 141.859329,67.830376 
	C135.825439,65.801506 131.235275,70.284081 125.778976,70.383453 
	C125.170204,70.394547 124.592049,72.086792 123.549759,72.999542 
	C120.400085,73.000099 117.700348,73.000504 114.572052,73.000565 
	C112.428787,72.999939 110.714088,72.999664 109.044464,72.630051 
	C110.516510,71.719040 112.044296,70.545052 113.351646,70.753494 
	C117.378593,71.395561 120.714951,70.822899 123.795341,67.870949 
	C125.196785,66.527946 127.390411,65.596703 129.342621,65.324600 
	C134.313370,64.631783 139.346436,64.351616 144.362503,64.030060 
	C147.890701,63.803890 146.906906,61.930527 146.000000,60.000305 
z"/>
<path fill="#7CABDA" opacity="1.000000" stroke="none" 
	d="
M76.871063,45.694374 
	C76.567101,48.324524 77.275787,51.319969 73.306702,51.869461 
	C71.922241,52.344387 70.711403,52.475368 69.798264,53.066353 
	C67.686943,54.432793 65.728004,55.961918 64.120300,52.084854 
	C67.933189,48.171589 72.029640,44.468880 76.482437,40.788597 
	C76.806282,42.335606 76.773796,43.860195 76.871063,45.694374 
z"/>
<path fill="#719FCF" opacity="1.000000" stroke="none" 
	d="
M42.642021,70.086533 
	C43.006081,70.522186 43.003231,70.942513 42.997093,71.678375 
	C42.551079,71.996017 42.108353,71.998131 41.039841,72.141319 
	C38.938339,73.849251 37.462631,75.416115 35.986923,76.982971 
	C35.024094,77.422142 34.061264,77.861320 33.048759,78.649963 
	C32.999088,78.999420 32.990479,78.997620 32.772568,79.104553 
	C32.282799,79.409508 32.097427,79.669250 31.998951,79.995056 
	C31.999355,79.999390 31.990681,79.998543 31.772747,80.105362 
	C31.283014,80.410309 31.097921,80.670189 30.999348,80.995758 
	C30.999163,80.999695 30.990490,80.997070 30.671139,81.021072 
	C29.567614,81.687798 28.783442,82.330528 27.699856,83.106949 
	C26.587410,84.148560 25.774378,85.056473 24.721500,86.140450 
	C24.319241,86.875587 24.156832,87.434669 23.935989,88.345009 
	C22.184561,90.756744 20.491568,92.817223 18.839722,94.490471 
	C19.039200,92.830032 19.197531,91.556824 19.355862,90.283615 
	C19.818140,89.654633 20.280418,89.025650 21.094339,87.988541 
	C21.635559,87.053734 21.825136,86.527061 22.014713,86.000397 
	C27.570782,79.167694 33.867252,73.276711 42.642021,70.086533 
z"/>
<path fill="#4589C9" opacity="1.000000" stroke="none" 
	d="
M37.549599,155.653046 
	C38.334587,155.450943 39.317219,155.535461 40.668468,155.696030 
	C44.176537,157.416763 47.315990,159.061447 50.761765,160.882996 
	C46.627804,159.353149 42.187523,157.646423 37.549599,155.653046 
z"/>
<path fill="#DEEDF5" opacity="1.000000" stroke="none" 
	d="
M19.069569,90.108154 
	C19.197531,91.556824 19.039200,92.830032 18.635109,94.605049 
	C18.164261,95.338737 18.020021,95.613113 17.639978,96.115250 
	C16.287764,99.565437 15.252193,102.830368 14.216625,106.095291 
	C14.105244,106.516945 13.993862,106.938599 13.746071,107.657608 
	C14.098244,104.258904 14.464641,100.541077 15.117971,96.874382 
	C15.560252,94.392159 16.397900,91.979332 17.141226,89.560822 
	C17.153658,89.520370 18.212652,89.801575 19.069569,90.108154 
z"/>
<path fill="#DEEDF5" opacity="1.000000" stroke="none" 
	d="
M12.611393,110.056580 
	C13.609434,115.064102 14.261317,120.145729 14.973602,125.947250 
	C15.030871,127.107483 15.027740,127.547806 15.024609,127.988136 
	C14.402296,127.976654 13.237824,127.999786 13.234568,127.948769 
	C12.855533,122.012978 12.562714,116.071671 12.611393,110.056580 
z"/>
<path fill="#5993CD" opacity="1.000000" stroke="none" 
	d="
M152.999390,68.000610 
	C153.789841,67.667847 154.580276,67.335075 155.715256,66.999008 
	C156.090805,67.740067 156.121841,68.484428 156.113342,69.600121 
	C155.499893,70.147751 154.925964,70.324059 153.913696,70.544327 
	C153.316696,69.725731 153.158035,68.863174 152.999390,68.000610 
z"/>
<path fill="#3A7FC0" opacity="1.000000" stroke="none" 
	d="
M16.060650,130.322693 
	C16.675699,130.825363 17.297430,131.648071 17.855389,132.837204 
	C17.216854,132.349991 16.642096,131.496368 16.060650,130.322693 
z"/>
<path fill="#3A7FC0" opacity="1.000000" stroke="none" 
	d="
M15.186769,128.051315 
	C15.027740,127.547806 15.030871,127.107483 15.081853,126.340393 
	C15.652138,126.183784 16.174574,126.353935 16.849941,126.761055 
	C16.746481,127.299805 16.490086,127.601578 15.963230,128.035965 
	C15.692770,128.168579 15.348928,128.114502 15.186769,128.051315 
z"/>
<path fill="#4589C9" opacity="1.000000" stroke="none" 
	d="
M164.364120,160.708435 
	C164.981537,160.184937 165.926910,159.701096 167.204010,159.224884 
	C166.587860,159.737717 165.639969,160.242889 164.364120,160.708435 
z"/>
<path fill="#4589C9" opacity="1.000000" stroke="none" 
	d="
M160.331238,161.804779 
	C160.782852,161.482361 161.544266,161.210953 162.623337,160.967117 
	C162.174332,161.281723 161.407700,161.568756 160.331238,161.804779 
z"/>
<path fill="#7CABDA" opacity="1.000000" stroke="none" 
	d="
M136.949371,40.686539 
	C136.537933,40.770054 135.946671,40.603474 135.209686,40.154137 
	C135.632492,40.059738 136.201035,40.248093 136.949371,40.686539 
z"/>
<path fill="#4693D6" opacity="1.000000" stroke="none" 
	d="
M187.428589,103.919777 
	C187.018753,103.499023 187.029266,103.010864 187.068146,102.157158 
	C187.530106,102.206070 187.963699,102.620522 188.527924,103.311928 
	C188.388672,103.676712 188.118805,103.764542 187.428589,103.919777 
z"/>
<path fill="#6498D2" opacity="1.000000" stroke="none" 
	d="
M51.563393,67.513382 
	C51.406078,67.939140 50.892029,68.414436 49.991203,68.882172 
	C50.138504,68.437378 50.672581,68.000153 51.563393,67.513382 
z"/>
<path fill="#4589C9" opacity="1.000000" stroke="none" 
	d="
M35.963856,154.720734 
	C36.000042,154.309235 36.155827,154.096252 36.311615,153.883255 
	C36.523842,154.141296 36.736065,154.399353 36.946320,154.928162 
	C36.614933,155.236328 36.327969,155.143097 35.963856,154.720734 
z"/>
<path fill="#DEEDF5" opacity="1.000000" stroke="none" 
	d="
M21.773285,86.149109 
	C21.825136,86.527061 21.635559,87.053734 21.183216,87.708450 
	C21.124254,87.323608 21.328054,86.810715 21.773285,86.149109 
z"/>
<path fill="#7CABDA" opacity="1.000000" stroke="none" 
	d="
M77.653679,39.736580 
	C77.759239,39.941746 77.602516,40.303535 77.183304,40.810982 
	C77.077675,40.602158 77.234535,40.247681 77.653679,39.736580 
z"/>
<path fill="#EAEFF2" opacity="1.000000" stroke="none" 
	d="
M87.350586,100.765770 
	C90.494392,95.758804 94.805779,92.263199 101.237961,90.352524 
	C105.616333,90.116837 109.280838,90.117409 112.945343,90.117981 
	C113.393295,90.458046 113.841255,90.798111 114.808189,91.439987 
	C116.196144,91.866333 117.065132,91.990860 117.934113,92.115379 
	C117.934113,92.115379 117.997070,92.058472 118.061729,92.381981 
	C125.315361,99.608551 128.553345,107.853065 126.484909,118.133804 
	C124.813911,120.938934 123.318069,123.450043 121.592285,125.738663 
	C121.242409,124.678116 121.122498,123.840042 121.140320,122.947327 
	C121.184700,122.927589 121.091354,122.962509 120.662437,122.849899 
	C119.217392,120.915535 117.826500,119.236893 117.085144,117.308540 
	C116.462418,115.688782 116.596458,113.778076 116.307739,111.582687 
	C115.886627,108.751396 115.553253,106.333580 115.174690,103.555191 
	C113.338600,98.824951 110.064316,96.573708 105.376801,97.092896 
	C100.567886,97.625526 97.277061,100.591660 96.515144,105.266838 
	C95.950912,108.729012 96.630608,112.393906 96.756943,116.353363 
	C99.899529,125.202072 107.833267,126.629929 115.069702,120.178925 
	C116.566780,123.463898 116.325928,125.364372 112.211723,125.373894 
	C108.995491,125.381325 105.781013,126.145187 102.565765,126.572945 
	C102.588982,126.926880 102.612198,127.280815 102.635414,127.634750 
	C105.260384,127.883377 107.885361,128.132004 111.222168,128.448059 
	C109.815796,130.246155 108.892616,131.426483 108.461914,131.977142 
	C109.774704,134.868820 110.804970,137.138168 111.835236,139.407532 
	C109.822632,137.544769 107.810020,135.682022 105.489410,133.656067 
	C104.237213,132.996887 103.335213,132.193420 102.341644,132.057007 
	C97.489334,131.390808 93.302132,129.606552 90.018463,124.952271 
	C84.928932,116.879822 85.455894,108.892639 87.350586,100.765770 
z"/>
<path fill="#E2EAF1" opacity="1.000000" stroke="none" 
	d="
M158.771332,124.412903 
	C158.835266,126.114822 158.899216,127.816734 159.041779,129.871613 
	C159.117203,130.394821 159.114029,130.565033 159.267532,131.013245 
	C159.424210,131.291275 159.445251,131.431885 159.445251,131.431885 
	C159.445251,131.431885 159.496490,131.622498 159.247803,131.555756 
	C158.240875,131.955460 157.482666,132.421921 156.724457,132.888397 
	C156.039917,132.877075 155.355392,132.865738 153.869812,132.858490 
	C147.046539,132.907974 141.024323,132.953369 135.002106,132.998749 
	C134.738007,132.832291 134.509720,132.626175 134.228455,131.841537 
	C134.042389,130.852432 133.945068,130.402161 133.923904,129.707642 
	C134.056091,129.302292 134.112122,129.141220 134.389252,129.174255 
	C134.991653,129.812607 135.372955,130.256866 135.826614,130.785431 
	C136.249649,127.308846 136.632843,124.159767 137.310104,120.712929 
	C137.731888,113.382774 137.922424,106.350182 137.898514,99.318314 
	C137.895889,98.541908 136.666763,97.769669 136.265976,96.712128 
	C138.350174,96.289124 140.174866,96.149483 141.997223,96.477875 
	C141.994644,103.521011 142.110214,110.099754 141.904617,116.668442 
	C141.858932,118.127731 140.681290,119.551590 139.746582,121.229729 
	C138.059631,124.903206 139.921936,127.457085 142.768311,127.850975 
	C147.545547,128.512054 152.480698,128.031845 157.349411,128.031845 
	C157.339508,127.351402 157.329605,126.670967 157.319702,125.990524 
	C153.661850,125.990524 149.989929,126.176178 146.352966,125.900536 
	C144.866669,125.787888 143.456039,124.676666 142.269226,124.011322 
	C142.699661,123.995857 142.871841,123.988808 143.502457,124.060570 
	C148.897705,124.230553 153.834503,124.321732 158.771332,124.412903 
z"/>
<path fill="#E5ECED" opacity="1.000000" stroke="none" 
	d="
M121.002579,123.001976 
	C121.122498,123.840042 121.242409,124.678116 121.465027,126.042877 
	C119.406921,128.218887 117.246117,129.868210 114.629578,131.865387 
	C116.796425,133.676682 118.866264,135.406891 120.936096,137.137100 
	C122.229088,138.876450 123.522079,140.615814 124.815079,142.355164 
	C122.531784,142.757614 120.139671,143.771118 117.996033,143.389374 
	C115.884041,143.013260 114.023796,141.223587 111.944168,139.730835 
	C110.804970,137.138168 109.774704,134.868820 108.461914,131.977142 
	C108.892616,131.426483 109.815796,130.246155 111.222168,128.448059 
	C107.885361,128.132004 105.260384,127.883377 102.635414,127.634750 
	C102.612198,127.280815 102.588982,126.926880 102.565765,126.572945 
	C105.781013,126.145187 108.995491,125.381325 112.211723,125.373894 
	C116.325928,125.364372 116.566780,123.463898 115.131760,119.771980 
	C115.387383,116.774803 115.891426,114.385490 116.395462,111.996178 
	C116.596458,113.778076 116.462418,115.688782 117.085144,117.308540 
	C117.826500,119.236893 119.217392,120.915535 120.663437,122.851181 
	C121.000000,123.000000 121.002579,123.001976 121.002579,123.001976 
z"/>
<path fill="#387CBE" opacity="1.000000" stroke="none" 
	d="
M121.023430,136.752975 
	C118.866264,135.406891 116.796425,133.676682 114.629578,131.865387 
	C117.246117,129.868210 119.406921,128.218887 121.694984,126.265358 
	C123.318069,123.450043 124.813911,120.938934 126.812141,118.177948 
	C127.533905,117.939194 127.753273,117.950333 128.112350,118.275940 
	C128.812042,119.279327 129.372009,119.968239 129.886734,120.601479 
	C131.000916,118.220558 131.988647,116.109840 133.197266,113.998734 
	C133.418152,113.998352 133.859772,113.986191 133.932678,114.422333 
	C133.962219,116.919014 133.918854,118.979546 133.611008,121.324425 
	C133.513596,124.389816 133.680664,127.170860 133.847748,129.951904 
	C133.945068,130.402161 134.042389,130.852432 134.103745,131.646423 
	C132.854752,131.833847 131.642487,131.671188 130.428406,131.523605 
	C129.662247,131.430481 128.232910,131.231583 128.220108,131.297501 
	C127.447281,135.276459 123.247055,134.393845 121.023430,136.752975 
z"/>
<path fill="#387CBE" opacity="1.000000" stroke="none" 
	d="
M135.009186,133.376251 
	C141.024323,132.953369 147.046539,132.907974 153.533600,132.923965 
	C153.031799,135.603790 152.093231,136.875000 148.638351,135.414612 
	C146.278595,134.417130 142.766983,135.198532 140.099503,136.128632 
	C137.151718,137.156448 135.757034,136.610077 135.009186,133.376251 
z"/>
<path fill="#3379BE" opacity="1.000000" stroke="none" 
	d="
M157.106049,132.917725 
	C157.482666,132.421921 158.240875,131.955460 159.334717,131.509033 
	C158.942780,132.001709 158.215210,132.474380 157.106049,132.917725 
z"/>
<path fill="#387CBE" opacity="1.000000" stroke="none" 
	d="
M132.533295,136.549805 
	C132.477997,136.582855 132.588577,136.516769 132.533295,136.549805 
z"/>
<path fill="#3379BE" opacity="1.000000" stroke="none" 
	d="
M159.669098,131.555557 
	C159.445251,131.431885 159.424210,131.291275 159.411377,131.224274 
	C159.700958,131.239960 160.003372,131.322678 160.305786,131.405396 
	C160.168167,131.496674 160.030563,131.587952 159.669098,131.555557 
z"/>
<path fill="#E4ECF1" opacity="1.000000" stroke="none" 
	d="
M59.999207,133.103287 
	C58.841110,132.554260 57.683010,132.005249 56.309586,131.220612 
	C56.170288,127.935760 56.246315,124.886505 56.794014,121.848129 
	C61.154430,122.890472 65.002045,124.216736 68.957703,124.768661 
	C70.102249,124.928352 72.108818,123.092552 72.665848,121.737976 
	C73.009224,120.902969 71.653717,118.606079 70.541550,118.094307 
	C68.209351,117.021133 65.534134,116.693405 62.999756,116.059608 
	C60.587894,113.027283 58.176033,109.994957 55.453217,106.597351 
	C54.866917,105.783417 54.591583,105.334763 54.266178,104.514198 
	C54.173580,103.143837 54.131050,102.145393 54.393608,100.965088 
	C57.203655,97.341270 59.708622,93.899307 62.238842,90.368744 
	C62.264095,90.280136 62.103077,90.190529 62.491249,90.270660 
	C64.392441,89.939453 65.905464,89.528107 67.679794,89.174225 
	C68.292351,89.178207 68.643593,89.124725 68.994827,89.071236 
	C72.708725,89.479805 76.422630,89.888382 81.291496,90.424011 
	C80.736633,93.382980 80.212135,96.180084 79.056030,98.801559 
	C76.609398,98.145775 74.794365,97.665611 72.733040,97.186516 
	C72.177299,97.361450 71.995270,97.623764 71.547279,97.998932 
	C70.102989,98.023727 69.052086,98.024109 67.684944,97.928284 
	C66.854218,98.191383 66.339722,98.550705 65.582909,99.079521 
	C65.277596,99.819763 65.214592,100.390511 65.096909,101.319115 
	C65.988304,102.891815 66.934387,104.106651 68.087585,105.585495 
	C71.945496,107.901680 75.596283,109.953857 79.240875,112.280785 
	C79.752998,113.056908 80.271324,113.558289 80.880768,114.347130 
	C81.277443,114.890350 81.583000,115.146103 81.835159,115.730896 
	C81.889389,116.713493 81.997017,117.367065 82.057999,118.431976 
	C82.053429,120.220444 82.095520,121.597565 82.056564,123.319580 
	C81.861572,124.363548 81.747635,125.062637 81.437645,125.914726 
	C81.024223,126.343681 80.935432,126.656166 80.854546,127.297989 
	C80.720352,128.012283 80.706818,128.433746 80.693283,128.855225 
	C78.040749,130.174789 75.388199,131.494354 72.083313,132.894501 
	C71.232742,133.287994 71.034523,133.600906 70.836304,133.913818 
	C70.836304,133.913818 70.931923,133.892319 70.472000,133.863953 
	C66.674454,133.591492 63.336830,133.347397 59.999207,133.103287 
z"/>
<path fill="#4988C5" opacity="1.000000" stroke="none" 
	d="
M82.104645,118.020638 
	C81.997017,117.367065 81.889389,116.713493 81.768906,115.423477 
	C81.433929,114.544579 81.111794,114.302124 80.789658,114.059669 
	C80.271324,113.558289 79.752998,113.056908 79.562164,112.324257 
	C80.834610,112.214706 81.779556,112.336426 83.048340,112.499855 
	C81.901993,108.924553 80.952980,105.964714 80.003960,103.004883 
	C82.213295,102.386444 84.422623,101.767998 86.991272,100.957664 
	C85.455894,108.892639 84.928932,116.879822 89.823296,124.671631 
	C87.101128,126.324394 84.311890,127.625694 81.107964,128.891113 
	C80.706818,128.433746 80.720352,128.012283 81.118698,127.286652 
	C81.546921,126.575569 81.590309,126.168648 81.633698,125.761719 
	C81.747635,125.062637 81.861572,124.363548 82.405014,123.252838 
	C84.660767,120.921013 84.921585,119.237823 82.104645,118.020638 
z"/>
<path fill="#337FC8" opacity="1.000000" stroke="none" 
	d="
M60.049957,133.461578 
	C63.336830,133.347397 66.674454,133.591492 70.446274,133.822266 
	C69.197334,134.539276 67.514183,135.269638 65.416122,135.999084 
	C63.367718,135.272064 61.734211,134.545959 60.049957,133.461578 
z"/>
<path fill="#337FC8" opacity="1.000000" stroke="none" 
	d="
M73.546600,135.402466 
	C73.894150,134.860321 74.421257,134.529938 74.948372,134.199539 
	C75.040283,134.445587 75.243736,134.887222 75.207214,134.908051 
	C74.733391,135.178253 74.225479,135.388687 73.546600,135.402466 
z"/>
<path fill="#337FC8" opacity="1.000000" stroke="none" 
	d="
M71.093674,133.839325 
	C71.034523,133.600906 71.232742,133.287994 71.717712,132.959320 
	C71.786659,133.217331 71.568855,133.491089 71.093674,133.839325 
z"/>
<path fill="#5993CD" opacity="1.000000" stroke="none" 
	d="
M69.051453,88.708717 
	C68.643593,89.124725 68.292351,89.178207 67.247116,89.141815 
	C65.069771,89.431458 63.586426,89.810997 62.103077,90.190529 
	C62.103077,90.190529 62.264095,90.280136 61.983810,90.158951 
	C59.136612,91.694496 56.569695,93.351242 53.990944,94.624710 
	C52.810699,93.631821 51.424034,92.276680 50.512238,92.543617 
	C46.860313,93.612732 43.462490,95.711288 39.773987,96.459709 
	C32.532745,97.929024 25.185907,97.871040 17.956625,95.929993 
	C18.020021,95.613113 18.164261,95.338737 18.593960,94.992279 
	C20.491568,92.817223 22.184561,90.756744 24.268156,88.490387 
	C27.347389,88.025490 30.575695,86.685799 32.624146,87.708748 
	C38.937458,90.861488 43.670002,86.468651 49.086147,85.397316 
	C51.482117,84.923378 54.009911,85.139328 56.473232,84.973442 
	C57.892490,84.877869 59.382088,84.874207 60.696953,84.417366 
	C62.420738,83.818459 63.940697,82.286385 65.658524,82.082031 
	C70.743309,81.477158 75.882240,81.327431 81.266838,81.284485 
	C85.943253,80.746971 91.372993,81.243073 94.529121,78.800888 
	C99.570671,74.899788 104.669029,75.076614 110.188179,74.905159 
	C111.810478,74.854759 113.397446,73.667274 115.000610,73.000916 
	C117.700348,73.000504 120.400085,73.000099 123.883247,72.999802 
	C125.111320,73.000252 125.555962,73.000587 126.000610,73.000916 
	C125.429939,73.943672 125.056030,75.469048 124.258011,75.738525 
	C116.780365,78.263687 109.807938,82.223618 101.215675,81.187042 
	C97.390129,80.725525 93.213577,83.474770 89.148972,84.594849 
	C86.103783,85.433998 82.145721,87.521210 80.064743,86.377327 
	C75.295822,83.755920 72.381653,85.699715 69.051453,88.708717 
z"/>
<path fill="#538ECB" opacity="1.000000" stroke="none" 
	d="
M160.796738,84.710403 
	C157.081055,87.364334 152.907623,87.709335 148.404633,87.194138 
	C147.330246,87.071213 145.989532,89.275993 144.582382,90.707344 
	C143.999786,90.984062 143.606110,90.963593 143.117798,90.977814 
	C143.023132,91.012505 142.831131,91.073807 142.681702,90.701920 
	C139.722809,90.541870 136.913361,90.753700 133.732574,91.038025 
	C132.576324,93.076508 131.791397,95.042496 131.004883,96.586205 
	C131.003281,94.176178 131.003281,92.188438 131.003281,90.399445 
	C129.253494,90.789253 127.578964,91.277336 125.869644,91.512680 
	C123.926064,91.780289 121.951393,91.822052 119.990234,91.961990 
	C120.105736,83.936478 121.069702,82.350845 128.955429,81.294556 
	C135.845810,80.371590 142.893982,79.842400 149.811859,80.227486 
	C153.472534,80.431259 157.004120,82.953758 160.796738,84.710403 
z"/>
<path fill="#4C8CC9" opacity="1.000000" stroke="none" 
	d="
M79.638474,103.001625 
	C80.952980,105.964714 81.901993,108.924553 83.048340,112.499855 
	C81.779556,112.336426 80.834610,112.214706 79.568375,112.049515 
	C75.596283,109.953857 71.945496,107.901680 68.150146,105.232529 
	C69.035629,103.505226 70.065659,102.394897 72.091682,100.210915 
	C69.029778,100.541954 67.090683,100.751602 65.151596,100.961250 
	C65.214592,100.390511 65.277596,99.819763 65.898926,99.091957 
	C66.971901,98.631424 67.486542,98.327957 68.001183,98.024498 
	C69.052086,98.024109 70.102989,98.023727 71.762337,97.929489 
	C72.644859,97.685585 72.847710,97.468857 72.979332,97.185455 
	C74.794365,97.665611 76.609398,98.145775 78.707275,98.844147 
	C78.206421,100.011108 77.422737,100.959869 76.336220,102.275238 
	C77.323105,102.518242 78.298042,102.758308 79.638474,103.001625 
z"/>
<path fill="#5C93CF" opacity="1.000000" stroke="none" 
	d="
M126.375450,73.000732 
	C125.555962,73.000587 125.111320,73.000252 124.333183,72.999649 
	C124.592049,72.086792 125.170204,70.394547 125.778976,70.383453 
	C131.235275,70.284081 135.825439,65.801506 141.859329,67.830376 
	C144.987946,68.882355 148.767258,67.999130 152.626007,67.995392 
	C153.158035,68.863174 153.316696,69.725731 153.737366,70.794182 
	C153.829666,71.555229 153.659943,72.110397 153.099548,72.607300 
	C152.139267,72.699455 151.569626,72.849876 151.000000,73.000305 
	C147.638718,73.000305 144.277420,73.000305 140.097000,72.842819 
	C135.851700,72.790421 132.425552,72.895515 128.999390,73.000610 
	C128.249695,73.000587 127.499992,73.000572 126.375450,73.000732 
z"/>
<path fill="#4E88C2" opacity="1.000000" stroke="none" 
	d="
M119.644066,91.977097 
	C121.951393,91.822052 123.926064,91.780289 125.869644,91.512680 
	C127.578964,91.277336 129.253494,90.789253 131.003281,90.399445 
	C131.003281,92.188438 131.003281,94.176178 131.004028,97.047302 
	C131.004761,101.554260 131.004761,105.177834 131.004761,108.801407 
	C130.675827,108.800339 130.346909,108.799263 130.017975,108.798195 
	C130.017975,105.225266 130.017975,101.652344 130.017975,98.079414 
	C129.587234,98.065285 129.156479,98.051155 128.725739,98.037025 
	C128.474701,104.678505 128.223663,111.319984 127.972633,117.961464 
	C127.753273,117.950333 127.533905,117.939194 126.987297,117.883911 
	C128.553345,107.853065 125.315361,99.608551 118.019302,92.382751 
	C118.374107,92.037415 118.836006,92.014809 119.644066,91.977097 
z"/>
<path fill="#538ECB" opacity="1.000000" stroke="none" 
	d="
M113.086411,89.780945 
	C109.280838,90.117409 105.616333,90.116837 101.494415,90.113007 
	C102.389626,86.090797 110.611328,84.088066 113.324860,87.195908 
	C113.682060,87.605019 113.278625,88.678261 113.086411,89.780945 
z"/>
<path fill="#5993CD" opacity="1.000000" stroke="none" 
	d="
M129.087997,73.391830 
	C132.425552,72.895515 135.851700,72.790421 139.638931,72.842957 
	C136.640442,76.695236 132.910049,75.260277 129.087997,73.391830 
z"/>
<path fill="#538ECB" opacity="1.000000" stroke="none" 
	d="
M117.910034,91.766617 
	C117.065132,91.990860 116.196144,91.866333 115.097656,91.503113 
	C115.874084,91.315559 116.880028,91.366707 117.910034,91.766617 
z"/>
<path fill="#5993CD" opacity="1.000000" stroke="none" 
	d="
M151.145599,73.225815 
	C151.569626,72.849876 152.139267,72.699455 152.854446,72.774673 
	C152.430405,73.150650 151.860794,73.300987 151.145599,73.225815 
z"/>
<path fill="#6196D1" opacity="1.000000" stroke="none" 
	d="
M145.603973,60.000801 
	C146.906906,61.930527 147.890701,63.803890 144.362503,64.030060 
	C139.346436,64.351616 134.313370,64.631783 129.342621,65.324600 
	C127.390411,65.596703 125.196785,66.527946 123.795341,67.870949 
	C120.714951,70.822899 117.378593,71.395561 113.351646,70.753494 
	C112.044296,70.545052 110.516510,71.719040 108.581360,72.630173 
	C104.048965,73.000069 100.024757,73.000488 95.602028,73.007774 
	C90.000290,73.676453 84.797928,74.345047 79.593330,74.995766 
	C78.120773,75.179886 76.517395,74.994896 75.185127,75.517433 
	C63.821358,79.974525 51.740372,80.323990 39.855518,81.756172 
	C39.314053,81.821426 38.619827,80.618996 37.996750,80.007004 
	C38.767063,79.697296 39.511440,79.245651 40.311630,79.099442 
	C50.414349,77.253464 60.469643,74.966064 70.652580,73.802460 
	C77.903305,72.973923 84.813332,69.841484 92.591255,71.552467 
	C96.193611,72.344910 100.525925,70.042824 104.479095,68.966576 
	C111.125694,67.157036 117.725433,65.175964 124.363869,63.335503 
	C126.060974,62.864990 127.938736,62.103142 129.544067,62.423721 
	C134.110855,63.335686 138.383148,63.631531 142.331055,60.519157 
	C143.006378,59.986752 144.234940,60.156116 145.603973,60.000801 
z"/>
<path fill="#5E94D0" opacity="1.000000" stroke="none" 
	d="
M37.631680,79.966354 
	C38.619827,80.618996 39.314053,81.821426 39.855518,81.756172 
	C51.740372,80.323990 63.821358,79.974525 75.185127,75.517433 
	C76.517395,74.994896 78.120773,75.179886 79.593330,74.995766 
	C84.797928,74.345047 90.000290,73.676453 95.565353,73.359825 
	C93.571465,75.477745 91.400536,77.621696 88.805443,78.913666 
	C86.443001,80.089806 83.619995,80.340866 81.000000,80.999695 
	C75.882240,81.327431 70.743309,81.477158 65.658524,82.082031 
	C63.940697,82.286385 62.420738,83.818459 60.696953,84.417366 
	C59.382088,84.874207 57.892490,84.877869 56.473232,84.973442 
	C54.009911,85.139328 51.482117,84.923378 49.086147,85.397316 
	C43.670002,86.468651 38.937458,90.861488 32.624146,87.708748 
	C30.575695,86.685799 27.347389,88.025490 24.326590,88.139130 
	C24.156832,87.434669 24.319241,86.875587 24.948071,86.398666 
	C27.016531,86.305901 28.710342,86.376549 30.173424,85.829781 
	C30.724195,85.623955 30.740206,83.987183 31.000084,82.668465 
	C30.996941,81.888481 30.993715,81.442772 30.990490,80.997070 
	C30.990490,80.997070 30.999163,80.999695 31.218660,80.890717 
	C31.711842,80.583832 31.896015,80.322762 31.990681,79.998543 
	C31.990681,79.998543 31.999355,79.999390 32.218521,79.890274 
	C32.711613,79.583252 32.895878,79.322067 32.990479,78.997620 
	C32.990479,78.997620 32.999088,78.999420 32.996639,78.993866 
	C34.418331,79.300774 35.842468,79.613235 37.631680,79.966354 
z"/>
<path fill="#679BD3" opacity="1.000000" stroke="none" 
	d="
M36.385880,76.988068 
	C37.462631,75.416115 38.938339,73.849251 40.707745,72.144592 
	C41.239330,75.058632 40.571922,77.344940 36.385880,76.988068 
z"/>
<path fill="#538FCB" opacity="1.000000" stroke="none" 
	d="
M17.639978,96.115250 
	C25.185907,97.871040 32.532745,97.929024 39.773987,96.459709 
	C43.462490,95.711288 46.860313,93.612732 50.512238,92.543617 
	C51.424034,92.276680 52.810699,93.631821 53.989578,94.874695 
	C53.998684,95.674675 53.997318,95.841393 53.829529,96.094147 
	C53.774429,96.449852 53.885765,96.719505 54.000748,97.404701 
	C54.032444,98.929146 54.060482,100.038040 54.088524,101.146942 
	C54.131050,102.145393 54.173580,103.143837 53.921509,104.546890 
	C52.651764,105.698456 51.676613,106.445419 50.794201,107.121353 
	C49.970325,106.557961 48.868019,105.173103 47.714123,105.128685 
	C43.591492,104.970024 39.404827,104.920158 35.328300,105.468170 
	C28.526604,106.382538 21.791138,107.789574 15.027789,108.989189 
	C14.906037,108.169334 14.784286,107.349487 14.439579,106.312462 
	C15.252193,102.830368 16.287764,99.565437 17.639978,96.115250 
M49.411522,96.482788 
	C49.411522,96.482788 49.523392,96.415901 49.411522,96.482788 
z"/>
<path fill="#4D8BC8" opacity="1.000000" stroke="none" 
	d="
M15.018536,109.405182 
	C21.791138,107.789574 28.526604,106.382538 35.328300,105.468170 
	C39.404827,104.920158 43.591492,104.970024 47.714123,105.128685 
	C48.868019,105.173103 49.970325,106.557961 50.794201,107.121353 
	C51.676613,106.445419 52.651764,105.698456 53.971581,104.918800 
	C54.591583,105.334763 54.866917,105.783417 55.113541,106.511688 
	C56.272026,110.490578 55.225662,111.957870 51.050861,112.247963 
	C43.928795,112.742844 36.770187,113.611725 29.805027,115.136848 
	C25.432177,116.094353 21.384489,118.536850 16.977362,120.403557 
	C16.205536,116.253441 15.607409,113.037315 15.018536,109.405182 
z"/>
<path fill="#4B87C6" opacity="1.000000" stroke="none" 
	d="
M63.005779,116.432091 
	C65.534134,116.693405 68.209351,117.021133 70.541550,118.094307 
	C71.653717,118.606079 73.009224,120.902969 72.665848,121.737976 
	C72.108818,123.092552 70.102249,124.928352 68.957703,124.768661 
	C65.002045,124.216736 61.154430,122.890472 57.065685,121.573975 
	C59.006683,121.081253 61.147682,120.873581 63.590027,120.636665 
	C63.380840,119.250313 63.196320,118.027443 63.005779,116.432091 
z"/>
<path fill="#3A7FC0" opacity="1.000000" stroke="none" 
	d="
M51.982807,126.699951 
	C51.683346,126.530365 51.361961,126.062706 51.019424,125.296692 
	C51.319141,125.466179 51.640015,125.934021 51.982807,126.699951 
z"/>
<path fill="#3A7FC0" opacity="1.000000" stroke="none" 
	d="
M53.171158,127.918686 
	C53.003807,127.841759 53.003151,127.675056 53.002922,127.258408 
	C53.114849,127.281944 53.226349,127.555420 53.171158,127.918686 
z"/>
<path fill="#6C9ED4" opacity="1.000000" stroke="none" 
	d="
M63.440697,63.000187 
	C64.457642,57.551006 69.728111,59.385242 73.036560,58.459045 
	C80.089592,56.484562 87.578003,56.034550 94.907829,55.118404 
	C95.825821,55.003666 96.863472,55.846325 97.923210,56.622047 
	C91.055107,58.665810 84.156235,60.579327 77.146645,61.909313 
	C72.811714,62.731815 68.308372,62.666714 63.440697,63.000187 
z"/>
<path fill="#5687B5" opacity="1.000000" stroke="none" 
	d="
M143.212448,90.943130 
	C143.606110,90.963593 143.999786,90.984062 144.688660,91.013123 
	C144.674973,92.121063 144.366043,93.220413 144.031616,94.665634 
	C144.002853,98.038597 143.999588,101.065666 143.998169,104.546829 
	C143.998505,105.445549 143.997009,105.890175 143.998978,106.668320 
	C143.998596,111.115547 144.109344,115.233673 143.951157,119.341446 
	C143.843246,122.143456 144.954880,123.167274 147.703873,123.045006 
	C151.152725,122.891602 154.613281,123.000954 158.536530,122.997833 
	C158.977280,123.236046 158.950272,123.473320 158.847290,124.061745 
	C153.834503,124.321732 148.897705,124.230553 143.476852,123.593987 
	C142.946899,113.030090 142.900986,103.011589 142.925079,92.653122 
	C143.067551,91.856476 143.139999,91.399803 143.212448,90.943130 
z"/>
<path fill="#74A5D9" opacity="1.000000" stroke="none" 
	d="
M138.996613,46.251587 
	C139.508835,46.426971 140.022629,46.851849 140.536423,47.276726 
	C140.132278,47.330894 139.728149,47.385067 139.161194,47.219650 
	C138.998398,47.000061 138.998184,46.501072 138.996613,46.251587 
z"/>
<path fill="#7CABDA" opacity="1.000000" stroke="none" 
	d="
M63.466858,56.448074 
	C63.523331,56.414234 63.410385,56.481918 63.466858,56.448074 
z"/>
<path fill="#5C94CF" opacity="1.000000" stroke="none" 
	d="
M81.266838,81.284485 
	C83.619995,80.340866 86.443001,80.089806 88.805443,78.913666 
	C91.400536,77.621696 93.571465,75.477745 95.963882,73.352966 
	C100.024757,73.000488 104.048965,73.000069 108.536278,72.999512 
	C110.714088,72.999664 112.428787,72.999939 114.572052,73.000565 
	C113.397446,73.667274 111.810478,74.854759 110.188179,74.905159 
	C104.669029,75.076614 99.570671,74.899788 94.529121,78.800888 
	C91.372993,81.243073 85.943253,80.746971 81.266838,81.284485 
z"/>
<path fill="#5993CD" opacity="1.000000" stroke="none" 
	d="
M31.000000,83.002747 
	C30.740206,83.987183 30.724195,85.623955 30.173424,85.829781 
	C28.710342,86.376549 27.016531,86.305901 25.187920,86.222610 
	C25.774378,85.056473 26.587410,84.148560 27.860695,83.347626 
	C29.213968,83.303986 30.106983,83.153366 31.000000,83.002747 
z"/>
<path fill="#6498D2" opacity="1.000000" stroke="none" 
	d="
M31.000084,82.668465 
	C30.106983,83.153366 29.213968,83.303986 28.160110,83.213928 
	C28.783442,82.330528 29.567614,81.687798 30.671139,81.021072 
	C30.993715,81.442772 30.996941,81.888481 31.000084,82.668465 
z"/>
<path fill="#6498D2" opacity="1.000000" stroke="none" 
	d="
M32.772568,79.104553 
	C32.895878,79.322067 32.711613,79.583252 32.218117,79.885941 
	C32.097427,79.669250 32.282799,79.409508 32.772568,79.104553 
z"/>
<path fill="#6498D2" opacity="1.000000" stroke="none" 
	d="
M31.772747,80.105362 
	C31.896015,80.322762 31.711842,80.583832 31.218845,80.886780 
	C31.097921,80.670189 31.283014,80.410309 31.772747,80.105362 
z"/>
<path fill="#4B89C6" opacity="1.000000" stroke="none" 
	d="
M96.756157,115.968491 
	C96.630608,112.393906 95.950912,108.729012 96.515144,105.266838 
	C97.277061,100.591660 100.567886,97.625526 105.376801,97.092896 
	C110.064316,96.573708 113.338600,98.824951 114.845749,103.703125 
	C114.379578,105.480690 113.973564,106.767044 114.070099,108.014496 
	C114.196991,109.654282 114.719467,111.263451 114.912064,112.150192 
	C113.503220,111.472900 111.926140,110.026619 110.882889,110.342651 
	C107.793167,111.278572 105.082672,111.818024 101.888031,110.329758 
	C100.682617,109.768188 98.517975,111.265617 96.790604,111.824455 
	C96.934456,112.269547 97.078308,112.714645 97.222160,113.159744 
	C98.442749,113.422554 99.663330,113.685364 100.883919,113.948174 
	C100.907097,114.390511 100.930283,114.832848 100.953461,115.275185 
	C99.554359,115.506294 98.155258,115.737396 96.756157,115.968491 
z"/>
<path fill="#4082C1" opacity="1.000000" stroke="none" 
	d="
M96.756943,116.353363 
	C98.155258,115.737396 99.554359,115.506294 100.953461,115.275185 
	C100.930283,114.832848 100.907097,114.390511 100.883919,113.948174 
	C99.663330,113.685364 98.442749,113.422554 97.222160,113.159744 
	C97.078308,112.714645 96.934456,112.269547 96.790604,111.824455 
	C98.517975,111.265617 100.682617,109.768188 101.888031,110.329758 
	C105.082672,111.818024 107.793167,111.278572 110.882889,110.342651 
	C111.926140,110.026619 113.503220,111.472900 114.912064,112.150192 
	C114.719467,111.263451 114.196991,109.654282 114.070099,108.014496 
	C113.973564,106.767044 114.379578,105.480690 114.890945,104.063705 
	C115.553253,106.333580 115.886627,108.751396 116.307732,111.582687 
	C115.891426,114.385490 115.387383,116.774803 114.821289,119.571060 
	C107.833267,126.629929 99.899529,125.202072 96.756943,116.353363 
z"/>
<path fill="#E5ECED" opacity="1.000000" stroke="none" 
	d="
M120.999001,122.998718 
	C121.091354,122.962509 121.184700,122.927589 121.140320,122.947327 
	C121.002579,123.001976 121.000000,123.000000 120.999001,122.998718 
z"/>
<path fill="#EFF0EC" opacity="1.000000" stroke="none" 
	d="
M136.006470,96.995499 
	C136.666763,97.769669 137.895889,98.541908 137.898514,99.318314 
	C137.922424,106.350182 137.731888,113.382774 137.144241,120.343468 
	C135.841522,115.197594 134.998749,110.123413 134.088867,104.605103 
	C134.067108,101.770935 134.112457,99.380913 134.465851,96.995026 
	C135.184753,96.997948 135.595612,96.996719 136.006470,96.995499 
z"/>
<path fill="#F9F7F7" opacity="1.000000" stroke="none" 
	d="
M134.155975,105.049232 
	C134.998749,110.123413 135.841522,115.197594 136.850174,120.641235 
	C136.632843,124.159767 136.249649,127.308846 135.826614,130.785431 
	C135.372955,130.256866 134.991653,129.812607 134.329315,128.736267 
	C133.990677,125.749481 133.933090,123.394783 133.875488,121.040077 
	C133.918854,118.979546 133.962219,116.919014 133.985138,113.975441 
	C133.919907,110.392433 133.875107,107.692459 133.906937,105.034134 
	C133.983566,105.075783 134.155975,105.049232 134.155975,105.049232 
z"/>
<path fill="#F4F0EA" opacity="1.000000" stroke="none" 
	d="
M142.010986,124.019745 
	C143.456039,124.676666 144.866669,125.787888 146.352966,125.900536 
	C149.989929,126.176178 153.661850,125.990524 157.319702,125.990524 
	C157.329605,126.670967 157.339508,127.351402 157.349411,128.031845 
	C152.480698,128.031845 147.545547,128.512054 142.768311,127.850975 
	C139.921936,127.457085 138.059631,124.903206 139.744217,121.566582 
	C140.025787,122.114243 140.031464,122.563011 140.135040,123.223297 
	C140.420593,123.698082 140.669098,123.876762 141.236679,123.980988 
	C141.666946,124.000664 141.838974,124.010208 142.010986,124.019745 
z"/>
<path fill="#E8F8FE" opacity="1.000000" stroke="none" 
	d="
M140.037140,123.011780 
	C140.031464,122.563011 140.025787,122.114243 140.022491,121.328621 
	C140.681290,119.551590 141.858932,118.127731 141.904617,116.668442 
	C142.110214,110.099754 141.994644,103.521011 141.881973,96.195816 
	C142.131058,94.628181 142.493057,93.810631 142.855072,92.993080 
	C142.900986,103.011589 142.946899,113.030090 143.018417,123.515182 
	C142.871841,123.988808 142.699661,123.995857 142.269226,124.011322 
	C141.838974,124.010208 141.666946,124.000664 141.134979,123.772888 
	C140.586731,123.295372 140.340775,123.114403 140.037140,123.011780 
z"/>
<path fill="#F9F7F7" opacity="1.000000" stroke="none" 
	d="
M142.925079,92.653122 
	C142.493057,93.810631 142.131058,94.628181 141.884308,95.727791 
	C140.174866,96.149483 138.350174,96.289124 136.265976,96.712128 
	C135.595612,96.996719 135.184753,96.997948 134.413345,96.645554 
	C134.670044,95.205132 135.287308,94.118332 136.273163,92.989594 
	C138.704895,92.323051 140.768005,91.698433 142.831131,91.073807 
	C142.831131,91.073807 143.023132,91.012505 143.117798,90.977814 
	C143.139999,91.399803 143.067551,91.856476 142.925079,92.653122 
z"/>
<path fill="#2676B2" opacity="1.000000" stroke="none" 
	d="
M133.611008,121.324425 
	C133.933090,123.394783 133.990677,125.749481 134.108215,128.542160 
	C134.112122,129.141220 134.056091,129.302292 133.923904,129.707642 
	C133.680664,127.170860 133.513596,124.389816 133.611008,121.324425 
z"/>
<path fill="#3F84C7" opacity="1.000000" stroke="none" 
	d="
M135.904572,93.031525 
	C135.287308,94.118332 134.670044,95.205132 134.105301,96.641403 
	C134.112457,99.380913 134.067108,101.770935 134.088867,104.605103 
	C134.155975,105.049232 133.983566,105.075783 133.654968,105.344269 
	C133.209686,108.408218 133.093033,111.203667 132.976379,113.999123 
	C131.988647,116.109840 131.000916,118.220558 129.886734,120.601479 
	C129.372009,119.968239 128.812042,119.279327 128.112350,118.275940 
	C128.223663,111.319984 128.474701,104.678505 128.725739,98.037025 
	C129.156479,98.051155 129.587234,98.065285 130.017975,98.079414 
	C130.017975,101.652344 130.017975,105.225266 130.017975,108.798195 
	C130.346909,108.799263 130.675827,108.800339 131.004761,108.801407 
	C131.004761,105.177834 131.004761,101.554260 131.005615,97.469589 
	C131.791397,95.042496 132.576324,93.076508 133.994720,91.167206 
	C135.053650,91.826439 135.479111,92.428986 135.904572,93.031525 
z"/>
<path fill="#2676B2" opacity="1.000000" stroke="none" 
	d="
M133.197266,113.998734 
	C133.093033,111.203667 133.209686,108.408218 133.578339,105.302628 
	C133.875107,107.692459 133.919907,110.392433 133.912231,113.539291 
	C133.859772,113.986191 133.418152,113.998352 133.197266,113.998734 
z"/>
<path fill="#5D8EC0" opacity="1.000000" stroke="none" 
	d="
M53.995956,96.008102 
	C53.997318,95.841393 53.998684,95.674675 54.001415,95.257973 
	C56.569695,93.351242 59.136612,91.694496 61.958557,90.247559 
	C59.708622,93.899307 57.203655,97.341270 54.393608,100.965088 
	C54.060482,100.038040 54.032444,98.929146 54.000778,97.159508 
	C53.997158,96.498772 53.995956,96.008102 53.995956,96.008102 
z"/>
<path fill="#528AC1" opacity="1.000000" stroke="none" 
	d="
M65.096909,101.319115 
	C67.090683,100.751602 69.029778,100.541954 72.091682,100.210915 
	C70.065659,102.394897 69.035629,103.505226 67.943039,104.968521 
	C66.934387,104.106651 65.988304,102.891815 65.096909,101.319115 
z"/>
<path fill="#347ABE" opacity="1.000000" stroke="none" 
	d="
M82.057999,118.431976 
	C84.921585,119.237823 84.660767,120.921013 82.486069,122.907951 
	C82.095520,121.597565 82.053429,120.220444 82.057999,118.431976 
z"/>
<path fill="#5D8EC0" opacity="1.000000" stroke="none" 
	d="
M62.491249,90.270660 
	C63.586426,89.810997 65.069771,89.431458 66.985802,89.084343 
	C65.905464,89.528107 64.392441,89.939453 62.491249,90.270660 
z"/>
<path fill="#347ABE" opacity="1.000000" stroke="none" 
	d="
M81.437637,125.914726 
	C81.590309,126.168648 81.546921,126.575569 81.239365,126.993835 
	C80.935432,126.656166 81.024223,126.343681 81.437637,125.914726 
z"/>
<path fill="#528AC1" opacity="1.000000" stroke="none" 
	d="
M67.684944,97.928284 
	C67.486542,98.327957 66.971901,98.631424 66.141251,98.922455 
	C66.339722,98.550705 66.854218,98.191383 67.684944,97.928284 
z"/>
<path fill="#5691CC" opacity="1.000000" stroke="none" 
	d="
M72.733040,97.186516 
	C72.847710,97.468857 72.644859,97.685585 72.155724,97.905075 
	C71.995270,97.623764 72.177299,97.361450 72.733040,97.186516 
z"/>
<path fill="#4C8CC9" opacity="1.000000" stroke="none" 
	d="
M80.880768,114.347130 
	C81.111794,114.302124 81.433929,114.544579 81.822311,115.094452 
	C81.583000,115.146103 81.277443,114.890350 80.880768,114.347130 
z"/>
<path fill="#E8F8FE" opacity="1.000000" stroke="none" 
	d="
M136.273163,92.989601 
	C135.479111,92.428986 135.053650,91.826439 134.366058,91.094719 
	C136.913361,90.753700 139.722809,90.541870 142.681702,90.701927 
	C140.768005,91.698433 138.704895,92.323051 136.273163,92.989601 
z"/>
<path fill="#5993CD" opacity="1.000000" stroke="none" 
	d="
M49.467457,96.449341 
	C49.523392,96.415901 49.411522,96.482788 49.467457,96.449341 
z"/>
<path fill="#5993CD" opacity="1.000000" stroke="none" 
	d="
M53.829529,96.094147 
	C53.995956,96.008102 53.997158,96.498772 53.997128,96.743965 
	C53.885765,96.719505 53.774429,96.449852 53.829529,96.094147 
z"/>
<path fill="#E2EAF1" opacity="1.000000" stroke="none" 
	d="
M140.135040,123.223297 
	C140.340775,123.114403 140.586731,123.295372 140.876740,123.762764 
	C140.669098,123.876762 140.420593,123.698082 140.135040,123.223297 
z"/>
</svg>